<svg xmlns="http://www.w3.org/2000/svg" xmlns:xlink="http://www.w3.org/1999/xlink" width="281.25" viewBox="0 0 281.25 112.5" height="112.5" version="1.0"><defs><clipPath id="b"><path d="M 14.21875 25 L 96.320312 25 L 96.320312 89 L 14.21875 89 Z M 14.21875 25"/></clipPath><clipPath id="c"><path d="M 94 36 L 96.320312 36 L 96.320312 38 L 94 38 Z M 94 36"/></clipPath><clipPath id="f"><path d="M 1 0.0351562 L 19.382812 0.0351562 L 19.382812 23.929688 L 1 23.929688 Z M 1 0.0351562"/></clipPath><clipPath id="e"><path d="M0 0H20V24H0z"/></clipPath><clipPath id="i"><path d="M 1 0.1875 L 13.78125 0.1875 L 13.78125 22 L 1 22 Z M 1 0.1875"/></clipPath><clipPath id="h"><path d="M0 0H14V23H0z"/></clipPath><mask id="d"><g filter="url(#a)"><path fill-opacity=".247" d="M-28.125 -11.25H309.375V123.75H-28.125z"/></g></mask><mask id="g"><g filter="url(#a)"><path fill-opacity=".247" d="M-28.125 -11.25H309.375V123.75H-28.125z"/></g></mask><filter x="0%" y="0%" width="100%" xmlns:xlink="http://www.w3.org/1999/xlink" xlink:type="simple" xlink:actuate="onLoad" height="100%" id="a" xlink:show="other"><feColorMatrix values="0 0 0 0 1 0 0 0 0 1 0 0 0 0 1 0 0 0 1 0" color-interpolation-filters="sRGB"/></filter></defs><g fill="#1E3976"><g><g><path d="M 12.492188 -24.375 L 9.898438 -24.289062 C 8.816406 -24.246094 7.304688 -24.117188 6.957031 -24.074219 C 5.75 -23.859375 5.402344 -21.609375 7 -21.046875 L 25.800781 -21.351562 L 25.84375 -19.578125 L 26.019531 -2.9375 C 26.019531 -2.421875 25.84375 -2.289062 25.5 -2.289062 C 24.808594 -2.289062 22.90625 -3.285156 21.523438 -3.628906 C 20.183594 -3.976562 19.664062 -2.289062 19.664062 -1.339844 C 19.707031 -1.296875 20.097656 -0.648438 20.226562 -0.519531 C 20.574219 -0.300781 20.960938 -0.128906 21.351562 0.0429688 C 22 0.390625 22.90625 0.777344 23.8125 1.125 C 25.023438 1.597656 26.40625 2.160156 27.617188 2.160156 C 27.921875 2.160156 28.65625 1.988281 28.785156 1.945312 C 29.5625 1.511719 29.476562 -1.296875 29.476562 -1.597656 L 29.476562 -2.9375 C 29.476562 -6.050781 29.390625 -17.589844 29.390625 -20.703125 L 29.390625 -21.351562 L 36.476562 -21.566406 C 37.210938 -21.695312 37.992188 -21.609375 37.992188 -23.121094 C 37.949219 -24.636719 36.910156 -24.59375 36.953125 -24.550781 L 29.5625 -24.550781 C 29.347656 -24.550781 29.21875 -24.636719 29.21875 -24.851562 L 29.21875 -25.242188 C 29.21875 -25.757812 29.21875 -27.097656 29.085938 -28.4375 C 28.957031 -29.777344 28.914062 -31.117188 28.914062 -31.636719 C 28.914062 -32.15625 28.480469 -32.890625 27.316406 -32.890625 C 26.667969 -32.890625 25.933594 -32.675781 25.757812 -31.636719 L 25.671875 -24.59375 Z M 9.335938 -15.171875 C 9.378906 -14.953125 9.679688 -14.523438 10.15625 -14.132812 C 10.285156 -13.917969 10.417969 -13.699219 10.589844 -13.527344 L 10.890625 -13.226562 C 11.195312 -13.007812 11.496094 -12.535156 12.144531 -12.015625 C 13.3125 -10.847656 14.609375 -9.636719 15.644531 -8.558594 C 16.207031 -7.996094 17.808594 -6.785156 17.9375 -6.65625 C 18.238281 -6.308594 18.5 -6.265625 18.714844 -6.265625 C 18.929688 -6.265625 19.234375 -6.785156 19.535156 -7.304688 C 19.75 -7.910156 19.882812 -8.429688 19.882812 -8.816406 L 19.882812 -9.335938 C 19.75 -9.550781 13.832031 -14.609375 12.578125 -15.644531 C 11.929688 -16.164062 11.582031 -16.511719 11.28125 -16.683594 L 10.890625 -16.683594 C 10.15625 -16.683594 9.550781 -15.6875 9.335938 -15.171875 Z M 9.335938 -15.171875" transform="translate(88.873 65.725)"/></g></g></g><g fill="#1E3976"><g><g><path d="M 5.402344 -10.589844 C 6.351562 -10.589844 9.378906 -10.71875 12.058594 -10.933594 C 13.65625 -11.0625 15.386719 -11.152344 17.289062 -11.28125 L 10.113281 -0.476562 C 9.984375 -0.347656 9.941406 -0.214844 9.8125 0.0859375 C 9.679688 0.433594 9.59375 0.691406 9.464844 0.863281 L 9.464844 1.039062 C 9.464844 1.511719 9.941406 1.511719 10.285156 1.511719 L 10.804688 1.511719 C 10.976562 1.46875 11.367188 1.082031 11.710938 0.734375 C 12.058594 0.390625 12.359375 0 12.492188 -0.128906 C 13.007812 -0.820312 14.433594 -2.636719 15.863281 -4.410156 L 17.894531 -6.957031 C 18.152344 -7.433594 18.410156 -7.867188 18.714844 -8.253906 C 19.191406 -8.945312 19.664062 -9.769531 19.96875 -10.113281 L 20.617188 -11.019531 L 20.960938 -11.410156 L 38.507812 -12.578125 C 40.152344 -12.359375 40.671875 -14.523438 38.8125 -14.867188 L 34.445312 -14.867188 C 32.542969 -14.867188 23.988281 -14.003906 22.085938 -14.003906 L 24.9375 -21.222656 C 26.320312 -24.851562 27.832031 -28.4375 27.832031 -28.523438 L 27.921875 -28.957031 C 28.136719 -30.253906 26.277344 -31.550781 24.894531 -30.082031 C 24.503906 -29.691406 18.886719 -14.175781 18.714844 -14.003906 L 18.585938 -13.742188 L 4.710938 -12.878906 C 3.671875 -12.316406 3.5 -10.589844 5.402344 -10.589844 Z M 26.0625 -9.8125 C 26.0625 -9.636719 26.105469 -9.507812 26.191406 -9.378906 L 26.40625 -8.945312 C 28.4375 -5.835938 31.25 -3.285156 34.1875 -0.863281 C 36.175781 0.0429688 37.386719 -1.902344 36.519531 -3.542969 C 36.21875 -4.191406 34.1875 -5.964844 32.371094 -7.304688 L 28.785156 -9.984375 C 26.449219 -11.152344 26.0625 -10.199219 26.0625 -9.8125 Z M 13.050781 -25.84375 C 14.390625 -24.980469 15.730469 -24.117188 16.25 -23.902344 C 17.113281 -23.382812 17.808594 -22.90625 18.628906 -22.90625 C 19.492188 -22.90625 20.183594 -24.203125 19.320312 -25.585938 L 11.019531 -29.304688 C 10.371094 -29.304688 9.769531 -28.914062 10.285156 -28.179688 C 10.546875 -27.878906 10.847656 -27.617188 11.152344 -27.316406 C 11.667969 -26.839844 12.359375 -26.320312 13.050781 -25.84375 Z M 10.285156 -19.621094 C 11.625 -18.757812 12.964844 -17.894531 13.484375 -17.675781 C 14.347656 -17.160156 15.039062 -16.683594 15.863281 -16.683594 C 16.726562 -16.683594 17.417969 -17.980469 16.554688 -19.363281 L 8.253906 -23.078125 C 7.605469 -23.078125 7 -22.691406 7.519531 -21.957031 C 7.78125 -21.652344 8.082031 -21.394531 8.382812 -21.089844 C 8.902344 -20.617188 9.59375 -20.097656 10.285156 -19.621094 Z M 10.285156 -19.621094" transform="translate(132.078 65.725)"/></g></g></g><g fill="#1E3976"><g><g><path d="M 24.980469 -29.21875 L 25.152344 -27.832031 C 25.285156 -27.011719 25.328125 -26.582031 25.328125 -26.105469 L 25.328125 -23.078125 C 20.832031 -21.824219 16.421875 -22.128906 16.421875 -19.792969 L 16.554688 -13.875 C 16.554688 -13.183594 16.597656 -11.972656 16.726562 -10.933594 L 16.8125 -9.507812 C 16.855469 -9.03125 16.855469 -8.859375 16.855469 -8.816406 L 17.203125 -8.125 C 17.332031 -8.082031 17.675781 -7.953125 17.894531 -7.953125 C 18.023438 -7.953125 18.195312 -7.996094 18.5 -8.039062 L 18.886719 -8.125 C 19.058594 -8.125 19.578125 -8.644531 19.578125 -8.816406 L 19.578125 -18.671875 C 19.578125 -18.84375 19.839844 -19.015625 20.3125 -19.191406 L 25.328125 -20.183594 L 25.714844 -0.777344 L 26.0625 -0.0859375 C 26.277344 -0.0429688 26.710938 0.0429688 26.925781 0.0429688 C 27.140625 0.0429688 27.574219 0 27.964844 -0.0429688 C 28.394531 -0.128906 28.65625 -0.390625 28.785156 -0.777344 L 28.785156 -5.316406 C 28.785156 -6.398438 28.742188 -10.242188 28.742188 -13.917969 C 28.699219 -16.035156 28.699219 -18.367188 28.699219 -20.917969 L 32.761719 -21.738281 C 34.101562 -22.085938 34.273438 -21.222656 34.445312 -20.011719 C 35.136719 -16.121094 34.878906 -12.75 34.75 -8.558594 C 35.09375 -8.210938 35.785156 -7.519531 36.304688 -7.519531 C 36.652344 -7.519531 36.953125 -7.691406 37.167969 -8.039062 C 37.644531 -8.6875 37.859375 -9.722656 37.992188 -10.976562 C 38.121094 -12.1875 38.164062 -13.398438 38.164062 -14.304688 L 38.164062 -16.640625 L 38.035156 -19.578125 C 37.992188 -20.488281 37.816406 -21.308594 37.515625 -22.042969 C 36.867188 -23.46875 35.699219 -24.417969 33.234375 -24.417969 C 32.847656 -24.417969 31.722656 -24.246094 30.644531 -24.074219 L 28.613281 -23.726562 C 28.613281 -23.769531 28.523438 -25.109375 28.480469 -26.449219 L 28.351562 -29.085938 C 28.4375 -29.085938 30.382812 -29.347656 30.988281 -29.347656 C 32.199219 -29.390625 33.625 -29.476562 34.835938 -29.605469 C 35.484375 -29.648438 35.828125 -29.648438 36.132812 -29.648438 C 36.347656 -29.777344 36.476562 -30.382812 36.476562 -30.601562 L 36.476562 -31.507812 C 36.476562 -31.722656 36.089844 -32.070312 35.871094 -32.199219 C 35.570312 -32.199219 31.03125 -31.984375 26.667969 -31.851562 C 24.074219 -31.722656 21.132812 -31.636719 17.894531 -31.550781 L 17.761719 -31.292969 C 17.675781 -31.117188 17.632812 -30.859375 17.632812 -30.511719 C 17.632812 -29.953125 17.808594 -29.5625 17.980469 -29.347656 L 18.367188 -29 Z M 9.378906 0.820312 C 9.421875 0.992188 9.941406 1.125 10.113281 1.082031 C 10.460938 1.082031 11.667969 0.433594 11.84375 0.257812 L 11.972656 0 L 12.1875 -0.648438 C 12.230469 -1.125 12.316406 -1.46875 12.316406 -1.773438 C 12.316406 -1.859375 13.960938 -11.0625 13.960938 -26.40625 L 13.832031 -30.644531 C 13.699219 -31.808594 13.09375 -32.070312 11.929688 -31.941406 L 11.152344 -31.550781 C 10.933594 -30.644531 10.847656 -29.820312 10.804688 -29 C 10.976562 -20.226562 10.589844 -13.226562 10.113281 -8.339844 C 9.855469 -5.488281 9.550781 -2.980469 9.207031 -0.777344 Z M 3.71875 -12.578125 C 4.019531 -12.144531 4.453125 -11.929688 5.058594 -11.929688 C 6.050781 -11.929688 6.914062 -12.449219 6.914062 -13.613281 L 6.914062 -25.757812 C 6.914062 -25.84375 6.828125 -25.933594 6.699219 -25.976562 C 6.398438 -26.105469 6.222656 -26.277344 5.75 -26.277344 C 5.058594 -26.277344 4.539062 -26.105469 4.363281 -25.414062 C 4.363281 -25.285156 4.363281 -25.152344 4.320312 -25.023438 L 4.234375 -24.375 C 4.105469 -23.859375 4.0625 -23.296875 4.0625 -23.078125 C 3.890625 -20.140625 3.71875 -17.070312 3.71875 -13.960938 Z M 3.71875 -12.578125" transform="translate(175.283 65.725)"/></g></g></g><g fill="#1E3976"><g><g><path d="M 20.617188 -18.5 C 21.871094 -18.367188 22.734375 -18.671875 23.46875 -18.714844 L 24.765625 -18.714844 L 24.808594 -16.984375 C 24.636719 -16.984375 20.960938 -16.898438 20.226562 -16.769531 C 19.578125 -16.554688 19.578125 -14.996094 20.660156 -14.867188 C 21.003906 -14.867188 22.820312 -14.996094 23.078125 -14.996094 L 24.808594 -14.996094 L 24.851562 -12.449219 C 24.980469 -11.195312 27.789062 -10.976562 27.660156 -12.664062 L 27.617188 -15.300781 C 28.136719 -15.300781 28.785156 -15.472656 29.777344 -15.472656 C 30.859375 -15.515625 31.292969 -15.90625 31.464844 -16.378906 C 31.59375 -16.640625 31.59375 -16.898438 31.550781 -17.203125 L 30.988281 -17.332031 C 30.6875 -17.375 30.601562 -17.417969 30.46875 -17.417969 C 30.253906 -17.417969 29.605469 -17.375 28.957031 -17.332031 L 27.574219 -17.289062 L 27.53125 -19.015625 C 27.703125 -19.015625 27.832031 -19.015625 27.921875 -19.058594 L 28.699219 -19.058594 C 29.171875 -19.058594 29.605469 -19.101562 29.996094 -19.191406 C 30.644531 -19.320312 30.859375 -19.75 30.730469 -20.488281 C 30.730469 -20.617188 30.730469 -20.917969 30.425781 -20.917969 L 27.53125 -20.832031 L 27.53125 -22.214844 C 27.660156 -22.214844 27.878906 -22.257812 28.09375 -22.300781 C 28.351562 -22.429688 31.335938 -22.5625 31.765625 -22.5625 C 31.808594 -22.5625 31.894531 -22.386719 31.941406 -22 C 31.984375 -21.824219 31.984375 -21.652344 31.984375 -21.4375 L 32.070312 -13.3125 C 32.199219 -11.019531 32.976562 -10.71875 33.539062 -10.71875 C 33.710938 -10.71875 33.882812 -10.761719 34.015625 -10.847656 C 34.230469 -11.019531 34.402344 -11.238281 34.488281 -11.453125 L 34.621094 -11.757812 C 35.355469 -13.832031 34.792969 -22.691406 34.621094 -23.339844 L 34.445312 -23.945312 C 34.445312 -24.980469 28.308594 -24.417969 27.445312 -24.417969 L 27.445312 -25.84375 C 27.660156 -25.84375 28.09375 -25.890625 28.570312 -25.933594 L 30.082031 -26.0625 C 30.601562 -26.105469 31.117188 -26.191406 31.59375 -26.191406 L 33.410156 -26.40625 C 35.269531 -26.625 35.050781 -27.746094 35.050781 -27.921875 C 35.050781 -28.4375 34.230469 -28.394531 33.753906 -28.394531 C 32.847656 -28.394531 31.941406 -28.351562 31.03125 -28.265625 C 30.167969 -28.179688 29.304688 -28.136719 28.4375 -28.136719 L 27.316406 -28.09375 L 27.230469 -29.863281 C 27.011719 -30.773438 26.539062 -30.859375 25.457031 -30.859375 C 24.460938 -30.859375 24.375 -30.425781 24.375 -29.863281 C 24.375 -29.519531 24.332031 -28.523438 24.332031 -28.179688 L 24.332031 -27.878906 C 24.289062 -27.878906 24.160156 -27.832031 23.988281 -27.789062 C 23.726562 -27.703125 23.511719 -27.660156 23.382812 -27.660156 C 23.164062 -27.660156 22.734375 -27.574219 22.171875 -27.53125 C 21.871094 -27.488281 20.746094 -27.488281 19.578125 -27.359375 L 17.375 -27.183594 C 16.121094 -26.96875 16.335938 -25.890625 16.335938 -25.5 C 16.335938 -25.285156 16.335938 -25.199219 16.683594 -25.066406 L 17.894531 -25.109375 C 18.453125 -25.109375 20.097656 -25.199219 21.609375 -25.328125 L 24.460938 -25.585938 L 24.460938 -24.03125 L 23.683594 -23.859375 L 21.222656 -23.511719 L 19.535156 -23.253906 C 19.058594 -23.210938 18.671875 -23.210938 18.28125 -23.078125 C 16.683594 -22.949219 16.683594 -22.257812 16.683594 -22 L 16.8125 -12.535156 C 16.8125 -12.402344 17.070312 -12.058594 17.71875 -11.929688 L 18.238281 -11.929688 C 18.800781 -11.929688 19.148438 -12.144531 19.277344 -12.578125 C 19.277344 -12.621094 19.277344 -14.609375 19.234375 -16.640625 C 19.191406 -17.808594 19.191406 -19.101562 19.191406 -20.617188 C 19.191406 -20.746094 19.277344 -20.832031 19.492188 -20.832031 C 19.621094 -20.960938 19.96875 -21.046875 20.140625 -21.046875 C 20.183594 -21.046875 20.355469 -21.089844 20.574219 -21.179688 C 20.875 -21.308594 21.003906 -21.265625 21.046875 -21.265625 L 22.777344 -21.566406 C 23.597656 -21.695312 24.289062 -21.738281 24.59375 -21.738281 L 24.59375 -20.746094 L 24.289062 -20.53125 L 21.132812 -20.269531 C 19.792969 -20.054688 19.96875 -18.628906 20.617188 -18.5 Z M 15.171875 -7.5625 C 14.609375 -6.914062 14.652344 -6.484375 14.78125 -6.179688 C 14.867188 -6.007812 14.996094 -5.835938 15.171875 -5.703125 C 15.90625 -5.660156 16.25 -5.617188 16.984375 -5.75 C 17.675781 -5.878906 20.832031 -6.179688 21.480469 -6.179688 C 21.652344 -6.136719 21.003906 -5.835938 21.222656 -5.445312 C 21.480469 -5.058594 23.210938 -2.03125 24.160156 -1.902344 C 24.722656 -1.902344 25.542969 -2.636719 25.585938 -3.457031 L 25.628906 -3.804688 C 25.457031 -3.976562 24.980469 -4.453125 24.460938 -4.839844 C 24.160156 -5.011719 23.859375 -5.445312 23.554688 -5.792969 L 23.035156 -6.441406 L 23.640625 -6.527344 L 23.8125 -6.527344 C 23.859375 -6.527344 24.03125 -6.570312 24.332031 -6.613281 L 25.933594 -6.828125 C 27.140625 -6.957031 26.839844 -6.957031 27.574219 -6.957031 C 27.617188 -6.957031 27.878906 -6.957031 28.179688 -7 C 28.308594 -7.042969 28.523438 -7.042969 28.742188 -7.089844 L 28.742188 -6.613281 C 28.742188 -6.484375 28.699219 -5.273438 28.65625 -4.019531 L 28.570312 -1.554688 C 28.570312 -1.425781 28.007812 -1.640625 27.488281 -1.859375 L 26.449219 -2.289062 C 25.800781 -2.289062 25.671875 -1.773438 25.800781 -1.640625 C 25.890625 -1.425781 28.007812 0.390625 28.351562 0.734375 C 28.699219 1.167969 29.128906 1.382812 29.691406 1.425781 C 30.167969 1.425781 31.074219 0.863281 31.074219 0.171875 L 31.378906 -7.261719 C 31.464844 -7.5625 32.976562 -7.476562 33.753906 -7.605469 C 34.488281 -7.738281 35.355469 -7.738281 35.65625 -7.867188 C 36.304688 -8.039062 36.261719 -7.996094 36.261719 -8.644531 C 36.304688 -8.816406 36.347656 -9.636719 36.046875 -9.679688 L 31.378906 -9.636719 L 31.203125 -10.933594 C 30.902344 -11.582031 30.6875 -11.84375 29.863281 -11.886719 C 29.648438 -11.84375 29.476562 -11.757812 29.390625 -11.710938 C 29.085938 -11.539062 28.914062 -11.410156 28.914062 -11.28125 L 28.828125 -9.378906 L 22 -8.472656 L 17.289062 -7.867188 C 16.554688 -7.738281 15.820312 -7.648438 15.171875 -7.5625 Z M 10.890625 -18.929688 C 10.890625 -18.195312 10.847656 -16.597656 10.804688 -14.566406 L 10.632812 -8.253906 C 10.589844 -6.222656 10.546875 -4.539062 10.546875 -3.71875 L 10.546875 -2.851562 C 10.546875 -1.6875 10.890625 -0.992188 12.101562 -0.992188 C 12.75 -0.992188 13.613281 -1.6875 13.613281 -2.378906 L 13.613281 -19.234375 C 13.613281 -19.320312 13.570312 -19.40625 13.484375 -19.492188 C 13.3125 -19.621094 13.007812 -19.792969 12.578125 -19.925781 C 11.582031 -19.925781 11.238281 -19.40625 10.890625 -18.929688 Z M 6.09375 -18.671875 C 6.09375 -18.324219 6.265625 -17.808594 6.613281 -17.808594 C 6.914062 -17.808594 7.261719 -17.980469 7.433594 -18.152344 L 8.082031 -18.671875 L 9.164062 -19.535156 C 9.984375 -20.226562 13.3125 -23.8125 14.523438 -25.242188 C 15.082031 -25.976562 15.644531 -26.625 16.164062 -27.273438 C 16.640625 -27.921875 17.027344 -28.308594 17.246094 -28.613281 L 17.246094 -28.957031 C 17.246094 -29.347656 16.941406 -29.820312 16.554688 -30.125 C 16.121094 -30.46875 15.6875 -30.644531 15.214844 -30.644531 L 14.867188 -30.644531 L 6.09375 -18.84375 Z M 29.261719 -30.382812 C 29.261719 -30.082031 29.519531 -29.910156 29.820312 -29.777344 L 33.496094 -28.613281 L 33.625 -28.613281 C 34.101562 -28.742188 34.488281 -29.476562 34.445312 -29.953125 C 34.445312 -30.125 33.839844 -30.902344 32.15625 -31.03125 C 31.765625 -31.074219 31.464844 -31.074219 31.160156 -31.074219 L 30.46875 -31.074219 L 30.082031 -30.988281 C 29.777344 -30.945312 29.21875 -30.859375 29.261719 -30.382812 Z M 29.261719 -30.382812" transform="translate(218.488 65.725)"/></g></g></g><g fill="#1E3976"><g><g><path d="M 8.558594 -2.101562 C 8.910156 -2.308594 9.074219 -2.558594 9.074219 -2.824219 C 9.074219 -2.96875 9.03125 -3.09375 8.949219 -3.21875 C 8.804688 -3.484375 8.597656 -3.628906 8.332031 -3.628906 C 8.1875 -3.628906 8.023438 -3.589844 7.855469 -3.503906 L 7.21875 -3.175781 C 6.785156 -3.03125 6.351562 -2.949219 5.917969 -2.949219 C 4.847656 -2.949219 3.816406 -3.402344 3.21875 -4.144531 C 2.703125 -4.804688 2.414062 -5.816406 2.414062 -6.886719 C 2.414062 -7.878906 2.660156 -8.824219 3.09375 -9.425781 C 3.980469 -10.640625 5.011719 -11.238281 6.1875 -11.238281 C 6.640625 -11.238281 7.09375 -11.15625 7.527344 -11.011719 C 7.753906 -10.949219 7.9375 -10.910156 8.0625 -10.910156 C 8.496094 -10.910156 8.765625 -11.175781 8.765625 -11.609375 C 8.742188 -11.960938 8.496094 -12.226562 7.980469 -12.457031 L 7.609375 -12.621094 C 7.238281 -12.722656 6.847656 -12.765625 6.453125 -12.765625 C 3.628906 -12.847656 0.804688 -9.898438 0.886719 -6.742188 C 0.84375 -4.125 2.722656 -1.257812 5.917969 -1.445312 C 6.765625 -1.421875 7.628906 -1.648438 8.558594 -2.101562 Z M 8.558594 -2.101562" transform="translate(98.166 97.642)"/></g></g></g><g fill="#1E3976"><g><g><path d="M 6.929688 -1.691406 C 7.011719 -1.691406 7.074219 -1.691406 7.113281 -1.710938 C 7.589844 -1.855469 7.671875 -2.144531 7.691406 -2.722656 L 7.753906 -4.042969 C 7.816406 -5.175781 7.855469 -6.207031 7.855469 -7.136719 C 7.855469 -7.363281 7.855469 -7.546875 7.878906 -7.671875 L 7.898438 -8.25 C 7.898438 -8.804688 7.652344 -9.09375 7.175781 -9.09375 C 6.742188 -9.09375 6.394531 -8.824219 6.371094 -8.351562 L 6.371094 -7.402344 C 6.351562 -6.703125 6.332031 -6.144531 6.269531 -5.753906 C 6.226562 -5.363281 6.105469 -4.929688 5.917969 -4.433594 C 5.648438 -3.753906 5.320312 -3.402344 4.660156 -3.175781 C 4.433594 -3.113281 4.226562 -3.074219 4.0625 -3.074219 C 3.503906 -3.074219 3.132812 -3.320312 2.949219 -3.835938 C 2.761719 -4.371094 2.679688 -4.90625 2.679688 -5.445312 C 2.679688 -6.394531 2.722656 -7.320312 2.824219 -8.226562 C 2.886719 -8.742188 2.703125 -9.054688 2.269531 -9.15625 C 2.164062 -9.175781 2.082031 -9.195312 2.019531 -9.195312 C 1.671875 -9.195312 1.359375 -8.910156 1.339844 -8.414062 C 1.195312 -6.929688 1.132812 -5.835938 1.132812 -5.15625 C 1.132812 -4.515625 1.238281 -3.875 1.464844 -3.238281 C 1.855469 -2.164062 2.703125 -1.527344 3.691406 -1.527344 C 4.125 -1.527344 4.515625 -1.628906 4.90625 -1.816406 C 5.238281 -1.917969 5.609375 -2.164062 6.042969 -2.496094 L 6.207031 -2.207031 C 6.414062 -1.855469 6.660156 -1.691406 6.929688 -1.691406 Z M 6.929688 -1.691406" transform="translate(110.126 97.642)"/></g></g></g><g fill="#1E3976"><g><g><path d="M 1.875 -9.195312 C 1.402344 -9.113281 1.257812 -8.785156 1.238281 -8.269531 C 1.175781 -6.886719 1.132812 -5.238281 1.132812 -3.320312 C 1.132812 -2.804688 1.214844 -2.390625 1.359375 -2.125 C 1.503906 -1.898438 1.875 -1.671875 2.101562 -1.730469 C 2.351562 -1.753906 2.597656 -2 2.742188 -2.269531 C 2.761719 -2.308594 2.785156 -2.371094 2.785156 -2.472656 L 2.761719 -3.960938 C 2.742188 -4.679688 2.722656 -5.21875 2.722656 -5.609375 C 2.722656 -6.144531 2.785156 -6.476562 2.886719 -6.597656 C 3.484375 -7.257812 4.042969 -7.652344 4.847656 -7.898438 C 4.90625 -7.917969 4.992188 -7.917969 5.113281 -7.917969 C 5.835938 -7.917969 6.269531 -7.382812 6.351562 -6.535156 C 6.371094 -6.042969 6.414062 -5.277344 6.433594 -4.226562 L 6.476562 -3.074219 C 6.496094 -2.847656 6.558594 -2.351562 6.660156 -2.101562 C 6.804688 -1.835938 6.992188 -1.710938 7.238281 -1.710938 C 7.484375 -1.710938 7.691406 -1.835938 7.835938 -2.0625 C 7.917969 -2.144531 8.023438 -2.371094 8.023438 -2.597656 L 8.023438 -3.484375 C 8.023438 -4.96875 7.980469 -6.164062 7.878906 -7.074219 C 7.710938 -8.414062 6.847656 -9.15625 5.589844 -9.15625 C 5.300781 -9.15625 5.03125 -9.136719 4.804688 -9.074219 C 4.332031 -8.992188 3.753906 -8.722656 3.648438 -8.660156 C 3.464844 -8.558594 3.195312 -8.453125 2.847656 -8.332031 L 2.804688 -8.578125 C 2.679688 -9.011719 2.433594 -9.21875 2.042969 -9.21875 Z M 1.875 -9.195312" transform="translate(121.839 97.642)"/></g></g></g><g fill="#1E3976"><g><g><path d="M 4.207031 -8.742188 L 4.226562 -4.269531 L 4.226562 -3.050781 C 4.226562 -2.949219 4.246094 -2.472656 4.332031 -2.144531 C 4.390625 -1.816406 4.578125 -1.609375 4.886719 -1.609375 C 4.992188 -1.609375 5.050781 -1.609375 5.09375 -1.628906 C 5.320312 -1.691406 5.527344 -1.875 5.710938 -2.207031 C 5.773438 -2.308594 5.792969 -2.433594 5.792969 -2.597656 L 5.773438 -2.90625 C 5.792969 -4.558594 5.816406 -6.804688 5.816406 -9.628906 C 5.816406 -10 5.835938 -10.371094 5.878906 -10.742188 C 6.476562 -10.765625 6.824219 -10.742188 7.050781 -10.742188 C 7.175781 -10.765625 7.507812 -10.765625 8.023438 -10.765625 L 8.992188 -10.785156 C 9.507812 -10.804688 9.855469 -11.136719 9.855469 -11.546875 C 9.855469 -12.023438 9.507812 -12.332031 8.910156 -12.351562 L 8.289062 -12.332031 L 7.589844 -12.3125 L 6.332031 -12.332031 C 4.621094 -12.394531 3.792969 -12.433594 3.835938 -12.433594 C 3.277344 -12.457031 2.578125 -12.496094 1.730469 -12.515625 C 1.300781 -12.539062 0.96875 -12.496094 0.699219 -12.394531 C 0.453125 -12.25 0.246094 -11.980469 0.164062 -11.734375 C 0.0820312 -11.339844 0.328125 -11.09375 0.742188 -11.011719 C 1.011719 -10.992188 1.238281 -10.96875 1.402344 -10.96875 L 1.898438 -10.992188 C 2.164062 -11.011719 2.558594 -10.992188 3.074219 -10.949219 L 4.164062 -10.886719 L 4.207031 -9.796875 Z M 4.207031 -8.742188" transform="translate(143.574 97.642)"/></g></g></g><g fill="#1E3976"><g><g><path d="M 6.019531 -2.308594 C 7.074219 -3.132812 7.691406 -4.515625 7.691406 -5.898438 C 7.691406 -6.453125 7.589844 -6.96875 7.382812 -7.445312 C 6.867188 -8.660156 5.855469 -9.257812 4.371094 -9.257812 C 3.113281 -9.257812 2.207031 -8.847656 1.671875 -8.023438 C 0.988281 -6.96875 0.722656 -5.980469 0.785156 -4.660156 C 0.804688 -3.589844 1.402344 -2.679688 2.371094 -2.082031 C 2.847656 -1.773438 3.402344 -1.628906 4.042969 -1.628906 C 4.785156 -1.628906 5.445312 -1.855469 6.019531 -2.308594 Z M 2.617188 -6.929688 C 2.96875 -7.484375 3.648438 -7.816406 4.308594 -7.816406 C 4.679688 -7.816406 5.011719 -7.734375 5.277344 -7.546875 C 5.628906 -7.300781 6.019531 -6.804688 6.125 -6.453125 C 6.1875 -6.289062 6.207031 -6.082031 6.207031 -5.855469 C 6.207031 -5.238281 6 -4.597656 5.609375 -3.917969 C 5.277344 -3.359375 4.660156 -3.074219 4.0625 -3.074219 C 3.648438 -3.074219 3.277344 -3.195312 2.929688 -3.464844 C 2.496094 -3.816406 2.164062 -4.433594 2.164062 -5.238281 C 2.164062 -5.960938 2.308594 -6.351562 2.617188 -6.929688 Z M 2.617188 -6.929688" transform="translate(156.586 97.642)"/></g></g></g><g fill="#1E3976"><g><g><path d="M 6.929688 -1.691406 C 7.011719 -1.691406 7.074219 -1.691406 7.113281 -1.710938 C 7.589844 -1.855469 7.671875 -2.144531 7.691406 -2.722656 L 7.753906 -4.042969 C 7.816406 -5.175781 7.855469 -6.207031 7.855469 -7.136719 C 7.855469 -7.363281 7.855469 -7.546875 7.878906 -7.671875 L 7.898438 -8.25 C 7.898438 -8.804688 7.652344 -9.09375 7.175781 -9.09375 C 6.742188 -9.09375 6.394531 -8.824219 6.371094 -8.351562 L 6.371094 -7.402344 C 6.351562 -6.703125 6.332031 -6.144531 6.269531 -5.753906 C 6.226562 -5.363281 6.105469 -4.929688 5.917969 -4.433594 C 5.648438 -3.753906 5.320312 -3.402344 4.660156 -3.175781 C 4.433594 -3.113281 4.226562 -3.074219 4.0625 -3.074219 C 3.503906 -3.074219 3.132812 -3.320312 2.949219 -3.835938 C 2.761719 -4.371094 2.679688 -4.90625 2.679688 -5.445312 C 2.679688 -6.394531 2.722656 -7.320312 2.824219 -8.226562 C 2.886719 -8.742188 2.703125 -9.054688 2.269531 -9.15625 C 2.164062 -9.175781 2.082031 -9.195312 2.019531 -9.195312 C 1.671875 -9.195312 1.359375 -8.910156 1.339844 -8.414062 C 1.195312 -6.929688 1.132812 -5.835938 1.132812 -5.15625 C 1.132812 -4.515625 1.238281 -3.875 1.464844 -3.238281 C 1.855469 -2.164062 2.703125 -1.527344 3.691406 -1.527344 C 4.125 -1.527344 4.515625 -1.628906 4.90625 -1.816406 C 5.238281 -1.917969 5.609375 -2.164062 6.042969 -2.496094 L 6.207031 -2.207031 C 6.414062 -1.855469 6.660156 -1.691406 6.929688 -1.691406 Z M 6.929688 -1.691406" transform="translate(167.742 97.642)"/></g></g></g><g fill="#1E3976"><g><g><path d="M 0.824219 -8.433594 C 0.824219 -8.207031 0.84375 -7.980469 0.886719 -7.753906 C 1.03125 -6.867188 1.566406 -6.1875 2.472656 -5.917969 C 3.074219 -5.753906 3.691406 -5.628906 4.371094 -5.546875 C 5.421875 -5.363281 6.125 -5.074219 6.679688 -4.476562 C 6.90625 -4.246094 7.011719 -4 7.011719 -3.734375 C 7.011719 -3.320312 6.660156 -3.011719 6.105469 -2.949219 C 5.816406 -2.90625 5.527344 -2.886719 5.238281 -2.886719 C 4.390625 -2.886719 3.710938 -3.132812 3.195312 -3.628906 C 3.011719 -3.855469 2.804688 -3.960938 2.578125 -3.960938 C 2.433594 -3.960938 2.269531 -3.898438 2.125 -3.773438 C 1.917969 -3.628906 1.816406 -3.445312 1.816406 -3.21875 C 1.816406 -2.988281 1.917969 -2.804688 2.125 -2.640625 C 2.453125 -2.289062 2.90625 -2 3.464844 -1.753906 C 4.105469 -1.527344 4.703125 -1.421875 5.277344 -1.421875 C 5.589844 -1.421875 5.9375 -1.464844 6.332031 -1.527344 C 7.421875 -1.671875 8.105469 -2.125 8.414062 -2.90625 C 8.539062 -3.21875 8.597656 -3.503906 8.597656 -3.773438 C 8.597656 -4.332031 8.371094 -4.867188 7.898438 -5.421875 C 7.238281 -6.226562 6.351562 -6.640625 5.132812 -6.90625 C 5.09375 -6.929688 4.824219 -6.96875 4.308594 -7.03125 C 4.042969 -7.050781 3.773438 -7.09375 3.503906 -7.15625 C 2.703125 -7.339844 2.390625 -7.691406 2.390625 -8.351562 C 2.390625 -8.496094 2.390625 -8.597656 2.414062 -8.679688 C 2.597656 -9.941406 3.546875 -11.054688 4.679688 -11.238281 C 5.03125 -11.300781 5.300781 -11.339844 5.527344 -11.339844 C 6.578125 -11.339844 7.402344 -10.804688 8.023438 -9.710938 C 8.042969 -9.628906 8.144531 -9.363281 8.289062 -9.300781 C 8.597656 -9.15625 8.804688 -9.113281 8.929688 -9.195312 C 9.09375 -9.21875 9.257812 -9.464844 9.320312 -9.691406 C 9.339844 -9.710938 9.339844 -9.734375 9.339844 -9.796875 C 9.339844 -9.898438 9.300781 -10.0625 9.195312 -10.25 C 8.597656 -11.980469 7.363281 -12.785156 5.382812 -12.785156 C 2.90625 -12.785156 0.824219 -10.765625 0.824219 -8.433594 Z M 0.824219 -8.433594" transform="translate(189.353 97.642)"/></g></g></g><g fill="#1E3976"><g><g><path d="M 3.15625 -12.144531 C 3.175781 -12.226562 3.175781 -12.332031 3.175781 -12.476562 C 3.175781 -13.15625 2.929688 -13.445312 2.414062 -13.445312 C 1.9375 -13.445312 1.691406 -13.054688 1.648438 -12.269531 L 1.566406 -11.257812 C 1.503906 -10.597656 1.445312 -9.734375 1.382812 -8.640625 C 1.359375 -8.023438 1.300781 -7.09375 1.214844 -5.855469 C 1.132812 -4.90625 1.074219 -3.960938 1.03125 -3.011719 L 1.03125 -2.660156 C 1.03125 -2.453125 1.050781 -2.308594 1.113281 -2.207031 C 1.277344 -1.960938 1.503906 -1.730469 1.730469 -1.730469 C 1.960938 -1.710938 2.226562 -1.898438 2.371094 -2.082031 C 2.472656 -2.207031 2.535156 -2.453125 2.535156 -2.847656 C 2.597656 -3.527344 2.640625 -4.164062 2.640625 -4.742188 C 2.640625 -5.960938 3.238281 -6.703125 4.371094 -7.546875 C 4.679688 -7.773438 4.992188 -7.898438 5.339844 -7.898438 C 5.980469 -7.898438 6.496094 -7.445312 6.597656 -6.640625 C 6.660156 -5.878906 6.679688 -4.679688 6.679688 -3.074219 C 6.679688 -2.847656 6.621094 -2.640625 6.621094 -2.453125 C 6.621094 -1.980469 6.886719 -1.628906 7.300781 -1.628906 C 7.527344 -1.628906 7.792969 -1.898438 8.023438 -2.082031 C 8.105469 -2.144531 8.167969 -2.332031 8.167969 -2.472656 L 8.1875 -4.785156 C 8.1875 -5.792969 8.125 -6.578125 8.023438 -7.15625 C 7.773438 -8.496094 6.96875 -9.21875 5.835938 -9.21875 C 5.363281 -9.21875 4.90625 -9.113281 4.476562 -8.929688 L 3.980469 -8.660156 C 3.753906 -8.515625 3.589844 -8.433594 3.464844 -8.371094 C 3.21875 -8.226562 3.011719 -8.105469 2.867188 -7.960938 L 2.867188 -8.824219 C 2.96875 -10.082031 3.050781 -11.175781 3.15625 -12.144531 Z M 3.15625 -12.144531" transform="translate(201.994 97.642)"/></g></g></g><g fill="#1E3976"><g><g><path d="M 2.246094 -12.457031 C 1.730469 -12.476562 1.238281 -12.105469 1.238281 -11.546875 C 1.238281 -11.113281 1.609375 -10.703125 2.042969 -10.683594 C 2.597656 -10.703125 3.050781 -11.113281 3.050781 -11.589844 C 3.050781 -11.980469 2.660156 -12.433594 2.246094 -12.457031 Z M 1.898438 -1.730469 C 2.308594 -1.730469 2.558594 -1.960938 2.640625 -2.390625 C 2.640625 -2.496094 2.722656 -2.804688 2.703125 -2.988281 C 2.761719 -3.710938 2.761719 -4.1875 2.761719 -4.515625 C 2.761719 -4.824219 2.785156 -5.320312 2.804688 -6.042969 C 2.824219 -6.226562 2.824219 -6.535156 2.824219 -6.949219 C 2.824219 -7.507812 2.824219 -7.917969 2.804688 -8.1875 C 2.785156 -8.765625 2.496094 -9.074219 2.0625 -9.136719 C 1.566406 -9.113281 1.238281 -8.765625 1.238281 -8.125 L 1.195312 -5.710938 C 1.15625 -4.703125 1.132812 -3.816406 1.132812 -3.011719 C 1.132812 -2.679688 1.132812 -2.472656 1.15625 -2.414062 C 1.214844 -1.960938 1.464844 -1.730469 1.898438 -1.730469 Z M 1.898438 -1.730469" transform="translate(213.996 97.642)"/></g></g></g><g fill="#1E3976"><g><g><path d="M 5.792969 -10.910156 C 7.011719 -10.929688 8.042969 -10.949219 8.929688 -10.949219 C 9.710938 -10.949219 10.105469 -11.175781 10.105469 -11.652344 C 10.105469 -12.144531 9.734375 -12.433594 8.96875 -12.496094 L 8.558594 -12.496094 C 8.289062 -12.496094 7.878906 -12.476562 7.363281 -12.457031 C 6.640625 -12.433594 6.105469 -12.414062 5.734375 -12.433594 C 4.578125 -12.476562 3.546875 -12.539062 2.617188 -12.621094 C 2.101562 -12.683594 1.792969 -12.496094 1.648438 -12 C 1.546875 -11.507812 1.484375 -11.09375 1.484375 -10.785156 C 1.484375 -9.816406 1.445312 -8.476562 1.359375 -6.742188 C 1.277344 -5.03125 1.238281 -3.710938 1.238281 -2.761719 C 1.238281 -2.414062 1.257812 -2.164062 1.277344 -2.019531 C 1.300781 -1.628906 1.546875 -1.402344 1.980469 -1.421875 C 2.332031 -1.445312 2.558594 -1.671875 2.617188 -2.125 C 2.640625 -2.289062 2.660156 -2.558594 2.660156 -2.929688 C 2.660156 -3.566406 2.679688 -4.207031 2.722656 -4.867188 L 2.761719 -5.898438 L 4.824219 -5.898438 C 5.710938 -5.960938 6.847656 -5.980469 8.226562 -5.980469 C 8.558594 -5.980469 8.765625 -6.019531 8.847656 -6.082031 C 9.15625 -6.371094 9.320312 -6.597656 9.320312 -6.765625 C 9.320312 -6.992188 9.074219 -7.238281 8.804688 -7.421875 C 8.742188 -7.464844 8.640625 -7.484375 8.539062 -7.484375 L 3.421875 -7.507812 L 3.03125 -7.507812 L 3.03125 -10.785156 C 3.195312 -10.804688 3.382812 -10.886719 3.527344 -10.886719 Z M 5.792969 -10.910156" transform="translate(230.493 97.642)"/></g></g></g><g fill="#1E3976"><g><g><path d="M 6.929688 -1.691406 C 7.011719 -1.691406 7.074219 -1.691406 7.113281 -1.710938 C 7.589844 -1.855469 7.671875 -2.144531 7.691406 -2.722656 L 7.753906 -4.042969 C 7.816406 -5.175781 7.855469 -6.207031 7.855469 -7.136719 C 7.855469 -7.363281 7.855469 -7.546875 7.878906 -7.671875 L 7.898438 -8.25 C 7.898438 -8.804688 7.652344 -9.09375 7.175781 -9.09375 C 6.742188 -9.09375 6.394531 -8.824219 6.371094 -8.351562 L 6.371094 -7.402344 C 6.351562 -6.703125 6.332031 -6.144531 6.269531 -5.753906 C 6.226562 -5.363281 6.105469 -4.929688 5.917969 -4.433594 C 5.648438 -3.753906 5.320312 -3.402344 4.660156 -3.175781 C 4.433594 -3.113281 4.226562 -3.074219 4.0625 -3.074219 C 3.503906 -3.074219 3.132812 -3.320312 2.949219 -3.835938 C 2.761719 -4.371094 2.679688 -4.90625 2.679688 -5.445312 C 2.679688 -6.394531 2.722656 -7.320312 2.824219 -8.226562 C 2.886719 -8.742188 2.703125 -9.054688 2.269531 -9.15625 C 2.164062 -9.175781 2.082031 -9.195312 2.019531 -9.195312 C 1.671875 -9.195312 1.359375 -8.910156 1.339844 -8.414062 C 1.195312 -6.929688 1.132812 -5.835938 1.132812 -5.15625 C 1.132812 -4.515625 1.238281 -3.875 1.464844 -3.238281 C 1.855469 -2.164062 2.703125 -1.527344 3.691406 -1.527344 C 4.125 -1.527344 4.515625 -1.628906 4.90625 -1.816406 C 5.238281 -1.917969 5.609375 -2.164062 6.042969 -2.496094 L 6.207031 -2.207031 C 6.414062 -1.855469 6.660156 -1.691406 6.929688 -1.691406 Z M 6.929688 -1.691406" transform="translate(243.38 97.642)"/></g></g></g><g clip-path="url(#b)"><path fill="#1E3976" d="M 16.699219 88.214844 L 22.023438 88.214844 C 22.023438 88.050781 22.023438 87.722656 22.070312 87.03125 C 22.203125 85.191406 19.574219 84.140625 19.574219 84.140625 C 17.601562 80.59375 20.496094 76.140625 26.785156 72.988281 C 30.582031 71.097656 31.285156 67.945312 33.191406 65.957031 C 35 67.945312 33.390625 75.699219 34.882812 78.589844 C 36.378906 81.480469 45.199219 87.527344 45.199219 87.527344 C 45.199219 87.527344 51.671875 88.496094 51.066406 86.210938 C 50.457031 83.945312 47.566406 84.453125 47.566406 84.453125 C 47.566406 84.453125 41.09375 81.5625 41.621094 77.800781 C 42.144531 74.039062 44.855469 64.707031 44.855469 64.707031 C 49.636719 65.203125 56.78125 65.941406 62.105469 66.484375 C 62.121094 66.761719 62.644531 77.933594 59.804688 80.332031 C 56.914062 82.761719 56.714844 86.164062 57.832031 87.34375 C 58.949219 88.527344 61.773438 87.9375 60.988281 86.164062 C 60.199219 84.386719 61.773438 83.535156 64.007812 81.429688 C 66.242188 79.328125 69.710938 68.175781 69.710938 68.175781 L 80.484375 88.921875 L 88.421875 88.921875 C 88.421875 88.921875 89.144531 86.359375 85.855469 86.359375 C 82.570312 86.359375 80.996094 82.941406 80.996094 82.941406 C 80.996094 82.941406 79.285156 71.527344 78.761719 68.242188 C 78.234375 64.957031 88.074219 43.75 88.074219 43.75 C 90.605469 40.429688 93.578125 41.644531 94.105469 41.5625 C 94.628906 41.480469 96.027344 37.71875 96.027344 37.71875 C 96.027344 37.71875 96.042969 37.703125 96.042969 37.6875 C 96.058594 37.652344 96.074219 37.621094 96.109375 37.570312 C 96.238281 37.308594 96.304688 37.046875 96.320312 36.800781 C 96.320312 36.585938 96.289062 36.371094 96.207031 36.191406 C 96.207031 36.175781 96.191406 36.160156 96.191406 36.160156 C 96.191406 36.160156 96.191406 36.140625 96.191406 36.140625 C 95.960938 35.617188 95.449219 35.207031 94.726562 35.023438 C 93.332031 34.679688 93.757812 32.921875 92.097656 31.707031 C 90.902344 30.820312 88.566406 30.164062 86.972656 29.835938 C 86.351562 29.703125 85.839844 29.621094 85.546875 29.605469 C 85.347656 29.589844 85.183594 29.421875 85.019531 29.175781 C 84.28125 28.011719 83.789062 24.988281 83 25.84375 C 82.03125 26.894531 80.550781 31.261719 80.550781 31.261719 C 80.550781 31.261719 77.183594 35.335938 74.03125 38.738281 C 70.875 42.15625 65.242188 43.601562 58.40625 42.8125 C 51.589844 42.023438 29.136719 42.15625 27.820312 42.15625 C 27.722656 42.15625 27.605469 42.15625 27.492188 42.136719 C 24.257812 43.863281 21.464844 46.835938 21.25 47.066406 C 20.460938 48.117188 18.820312 51.273438 19.015625 58.828125 C 19.277344 68.667969 15.597656 69.324219 14.417969 73.925781 C 13.28125 78.492188 16.699219 88.214844 16.699219 88.214844 Z M 16.699219 88.214844"/></g><path fill="#F99C9C" d="M 85.035156 29.144531 C 85.199219 29.390625 85.363281 29.554688 85.5625 29.570312 C 85.855469 29.589844 86.367188 29.671875 86.992188 29.800781 C 86.992188 29.359375 87.105469 28.617188 87.222656 28.125 C 87.386719 27.453125 87.417969 26.171875 86.746094 26.828125 C 86.234375 27.355469 85.398438 28.585938 85.035156 29.144531 Z M 85.035156 29.144531"/><path fill="#F99C9C" d="M 27.589844 42.121094 C 26.308594 41.941406 24.566406 40.480469 22.269531 33.21875 C 19.773438 25.351562 23.1875 15.886719 26.210938 14.707031 C 29.234375 13.523438 27.261719 12.078125 27.261719 12.078125 C 27.261719 12.078125 20.839844 9.578125 16.898438 21.40625 C 12.953125 33.21875 21.757812 46.605469 21.757812 46.605469 C 21.757812 46.605469 24.355469 43.847656 27.589844 42.121094 Z M 27.589844 42.121094"/><g clip-path="url(#c)"><path fill="#F99C9C" d="M 94.875 36.472656 C 94.875 36.472656 95.945312 37.128906 96.074219 37.6875 C 96.089844 37.652344 96.125 37.621094 96.140625 37.589844 C 96.273438 37.324219 96.335938 37.0625 96.355469 36.800781 C 96.355469 36.570312 96.304688 36.355469 96.222656 36.140625 C 96.222656 36.140625 96.222656 36.125 96.222656 36.125 Z M 94.875 36.472656"/></g><g mask="url(#d)"><g><g clip-path="url(#e)" transform="translate(32 64)"><g clip-path="url(#f)"><path fill="#F99C9C" d="M 1.207031 1.957031 C 3.015625 3.945312 1.40625 11.699219 2.902344 14.589844 C 4.394531 17.480469 13.21875 23.527344 13.21875 23.527344 C 13.21875 23.527344 19.6875 24.496094 19.082031 22.210938 C 18.472656 19.945312 15.582031 20.453125 15.582031 20.453125 C 15.582031 20.453125 9.109375 17.5625 9.636719 13.800781 C 10.160156 10.039062 12.871094 0.707031 12.871094 0.707031 C 10.113281 0.429688 8.140625 0.234375 7.796875 0.183594 C 4.246094 -0.179688 2.457031 0.644531 1.207031 1.957031 Z M 1.207031 1.957031"/></g></g></g></g><g mask="url(#g)"><g><g clip-path="url(#h)" transform="translate(56 66)"><g clip-path="url(#i)"><path fill="#F99C9C" d="M 1.847656 21.363281 C 2.964844 22.542969 5.792969 21.953125 5.003906 20.179688 C 4.214844 18.40625 5.792969 17.550781 8.027344 15.449219 C 10.261719 13.34375 13.726562 2.191406 13.726562 2.191406 L 13.21875 1.207031 C 13.21875 1.207031 10.226562 0.894531 6.136719 0.484375 C 6.152344 0.761719 6.679688 11.933594 3.835938 14.332031 C 0.929688 16.761719 0.730469 20.179688 1.847656 21.363281 Z M 1.847656 21.363281"/></g></g></g></g></svg>