<svg xmlns="http://www.w3.org/2000/svg" xmlns:xlink="http://www.w3.org/1999/xlink" width="1950" viewBox="0 0 1950 675" height="675" version="1.0"><defs><clipPath id="b"><path d="M 43.164062 125 L 636.003906 125 L 636.003906 583 L 43.164062 583 Z M 43.164062 125"/></clipPath><clipPath id="c"><path d="M 625 200 L 636.003906 200 L 636.003906 213 L 625 213 Z M 625 200"/></clipPath><clipPath id="f"><path d="M 1 0.363281 L 131 0.363281 L 131 172 L 1 172 Z M 1 0.363281"/></clipPath><clipPath id="e"><path d="M0 0H132V173H0z"/></clipPath><clipPath id="i"><path d="M 1 2 L 92 2 L 92 157.867188 L 1 157.867188 Z M 1 2"/></clipPath><clipPath id="h"><path d="M0 0H93V158H0z"/></clipPath><mask id="d"><g filter="url(#a)"><path fill-opacity=".247" d="M-195 -67.5H2145V742.5H-195z"/></g></mask><mask id="g"><g filter="url(#a)"><path fill-opacity=".247" d="M-195 -67.5H2145V742.5H-195z"/></g></mask><filter x="0%" y="0%" width="100%" xmlns:xlink="http://www.w3.org/1999/xlink" xlink:type="simple" xlink:actuate="onLoad" height="100%" id="a" xlink:show="other"><feColorMatrix values="0 0 0 0 1 0 0 0 0 1 0 0 0 0 1 0 0 0 1 0" color-interpolation-filters="sRGB"/></filter></defs><g fill="#1E3976"><g><g><path d="M 90.199219 -176.027344 L 71.472656 -175.402344 C 63.667969 -175.089844 52.746094 -174.15625 50.25 -173.84375 C 41.511719 -172.28125 39.011719 -156.054688 50.5625 -151.996094 L 186.328125 -154.179688 L 186.640625 -141.382812 L 187.886719 -21.222656 C 187.886719 -17.476562 186.640625 -16.542969 184.140625 -16.542969 C 179.148438 -16.542969 165.414062 -23.71875 155.429688 -26.21875 C 145.753906 -28.714844 142.007812 -16.542969 142.007812 -9.675781 C 142.320312 -9.363281 145.128906 -4.679688 146.066406 -3.746094 C 148.5625 -2.183594 151.371094 -0.9375 154.179688 0.3125 C 158.863281 2.808594 165.414062 5.617188 171.96875 8.113281 C 180.710938 11.546875 190.695312 15.605469 199.433594 15.605469 C 201.621094 15.605469 206.925781 14.355469 207.863281 14.042969 C 213.480469 10.921875 212.855469 -9.363281 212.855469 -11.546875 L 212.855469 -21.222656 C 212.855469 -43.695312 212.230469 -127.027344 212.230469 -149.5 L 212.230469 -154.179688 L 263.417969 -155.742188 C 268.722656 -156.675781 274.339844 -156.054688 274.339844 -166.976562 C 274.027344 -177.898438 266.539062 -177.589844 266.851562 -177.277344 L 213.480469 -177.277344 C 211.917969 -177.277344 210.984375 -177.898438 210.984375 -179.460938 L 210.984375 -182.269531 C 210.984375 -186.015625 210.984375 -195.691406 210.046875 -205.367188 C 209.109375 -215.039062 208.796875 -224.714844 208.796875 -228.460938 C 208.796875 -232.207031 205.675781 -237.511719 197.25 -237.511719 C 192.570312 -237.511719 187.261719 -235.953125 186.015625 -228.460938 L 185.390625 -177.589844 Z M 67.414062 -109.550781 C 67.726562 -107.988281 69.910156 -104.867188 73.34375 -102.058594 C 74.28125 -100.496094 75.21875 -98.9375 76.464844 -97.6875 L 78.652344 -95.503906 C 80.835938 -93.945312 83.019531 -90.511719 87.703125 -86.765625 C 96.128906 -78.339844 105.492188 -69.597656 112.980469 -61.796875 C 117.039062 -57.738281 128.585938 -49 129.523438 -48.0625 C 131.707031 -45.566406 133.582031 -45.253906 135.140625 -45.253906 C 136.703125 -45.253906 138.886719 -49 141.070312 -52.746094 C 142.632812 -57.117188 143.570312 -60.859375 143.570312 -63.667969 L 143.570312 -67.414062 C 142.632812 -68.976562 99.875 -105.492188 90.824219 -112.980469 C 86.140625 -116.726562 83.644531 -119.222656 81.460938 -120.472656 L 78.652344 -120.472656 C 73.34375 -120.472656 68.976562 -113.292969 67.414062 -109.550781 Z M 67.414062 -109.550781" transform="translate(658.56 414.711)"/></g></g></g><g fill="#1E3976"><g><g><path d="M 39.011719 -76.464844 C 45.878906 -76.464844 67.726562 -77.402344 87.078125 -78.960938 C 98.625 -79.898438 111.109375 -80.523438 124.84375 -81.460938 L 73.03125 -3.433594 C 72.097656 -2.496094 71.785156 -1.558594 70.847656 0.625 C 69.910156 3.121094 69.289062 4.992188 68.351562 6.242188 L 68.351562 7.492188 C 68.351562 10.921875 71.785156 10.921875 74.28125 10.921875 L 78.027344 10.921875 C 79.273438 10.613281 82.082031 7.800781 84.582031 5.304688 C 87.078125 2.808594 89.261719 0 90.199219 -0.9375 C 93.945312 -5.929688 104.242188 -19.039062 114.542969 -31.835938 L 129.210938 -50.25 C 131.085938 -53.683594 132.957031 -56.804688 135.140625 -59.613281 C 138.574219 -64.605469 142.007812 -70.535156 144.191406 -73.03125 L 148.875 -79.585938 L 151.371094 -82.394531 L 278.085938 -90.824219 C 289.945312 -89.261719 293.691406 -104.867188 280.269531 -107.363281 L 248.75 -107.363281 C 235.015625 -107.363281 173.21875 -101.121094 159.484375 -101.121094 L 180.085938 -153.242188 C 190.074219 -179.460938 200.996094 -205.367188 200.996094 -205.988281 L 201.621094 -209.109375 C 203.179688 -218.472656 189.761719 -227.835938 179.773438 -217.226562 C 176.964844 -214.417969 136.390625 -102.371094 135.140625 -101.121094 L 134.207031 -99.25 L 34.019531 -93.007812 C 26.527344 -88.949219 25.28125 -76.464844 39.011719 -76.464844 Z M 188.199219 -70.847656 C 188.199219 -69.597656 188.511719 -68.664062 189.136719 -67.726562 L 190.695312 -64.605469 C 205.367188 -42.132812 225.652344 -23.71875 246.875 -6.242188 C 261.234375 0.3125 269.972656 -13.734375 263.730469 -25.59375 C 261.542969 -30.273438 246.875 -43.070312 233.765625 -52.746094 L 207.863281 -72.097656 C 191.007812 -80.523438 188.199219 -73.65625 188.199219 -70.847656 Z M 94.257812 -186.640625 C 103.929688 -180.398438 113.605469 -174.15625 117.351562 -172.59375 C 123.59375 -168.847656 128.585938 -165.414062 134.515625 -165.414062 C 140.757812 -165.414062 145.753906 -174.777344 139.511719 -184.765625 L 79.585938 -211.609375 C 74.90625 -211.609375 70.535156 -208.796875 74.28125 -203.492188 C 76.152344 -201.308594 78.339844 -199.433594 80.523438 -197.25 C 84.269531 -193.816406 89.261719 -190.074219 94.257812 -186.640625 Z M 74.28125 -141.695312 C 83.957031 -135.453125 93.632812 -129.210938 97.378906 -127.652344 C 103.617188 -123.90625 108.613281 -120.472656 114.542969 -120.472656 C 120.785156 -120.472656 125.777344 -129.835938 119.535156 -139.824219 L 59.613281 -166.664062 C 54.929688 -166.664062 50.5625 -163.855469 54.304688 -158.550781 C 56.179688 -156.363281 58.363281 -154.492188 60.546875 -152.308594 C 64.292969 -148.875 69.289062 -145.128906 74.28125 -141.695312 Z M 74.28125 -141.695312" transform="translate(970.555 414.711)"/></g></g></g><g fill="#1E3976"><g><g><path d="M 180.398438 -210.984375 L 181.644531 -200.996094 C 182.582031 -195.066406 182.894531 -191.945312 182.894531 -188.511719 L 182.894531 -166.664062 C 150.433594 -157.613281 118.601562 -159.796875 118.601562 -142.945312 L 119.535156 -100.1875 C 119.535156 -95.191406 119.847656 -86.453125 120.785156 -78.960938 L 121.410156 -68.664062 C 121.722656 -65.230469 121.722656 -63.980469 121.722656 -63.667969 L 124.21875 -58.675781 C 125.15625 -58.363281 127.652344 -57.425781 129.210938 -57.425781 C 130.148438 -57.425781 131.398438 -57.738281 133.582031 -58.050781 L 136.390625 -58.675781 C 137.636719 -58.675781 141.382812 -62.421875 141.382812 -63.667969 L 141.382812 -134.828125 C 141.382812 -136.078125 143.257812 -137.328125 146.691406 -138.574219 L 182.894531 -145.753906 L 185.703125 -5.617188 L 188.199219 -0.625 C 189.761719 -0.3125 192.882812 0.3125 194.441406 0.3125 C 196.003906 0.3125 199.125 0 201.933594 -0.3125 C 205.054688 -0.9375 206.925781 -2.808594 207.863281 -5.617188 L 207.863281 -38.390625 C 207.863281 -46.191406 207.550781 -73.96875 207.550781 -100.496094 C 207.238281 -115.792969 207.238281 -132.644531 207.238281 -151.058594 L 236.574219 -156.988281 C 246.25 -159.484375 247.5 -153.242188 248.75 -144.503906 C 253.742188 -116.414062 251.871094 -92.070312 250.933594 -61.796875 C 253.429688 -59.300781 258.421875 -54.304688 262.167969 -54.304688 C 264.664062 -54.304688 266.851562 -55.554688 268.410156 -58.050781 C 271.84375 -62.734375 273.40625 -70.222656 274.339844 -79.273438 C 275.277344 -88.015625 275.589844 -96.753906 275.589844 -103.308594 L 275.589844 -120.160156 L 274.652344 -141.382812 C 274.339844 -147.9375 273.09375 -153.867188 270.90625 -159.175781 C 266.226562 -169.472656 257.800781 -176.339844 240.007812 -176.339844 C 237.199219 -176.339844 229.085938 -175.089844 221.28125 -173.84375 L 206.613281 -171.347656 C 206.613281 -171.65625 205.988281 -181.332031 205.675781 -191.007812 L 204.742188 -210.046875 C 205.367188 -210.046875 219.410156 -211.917969 223.78125 -211.917969 C 232.519531 -212.230469 242.816406 -212.855469 251.558594 -213.792969 C 256.238281 -214.105469 258.734375 -214.105469 260.921875 -214.105469 C 262.480469 -215.039062 263.417969 -219.410156 263.417969 -220.972656 L 263.417969 -227.523438 C 263.417969 -229.085938 260.609375 -231.582031 259.046875 -232.519531 C 256.863281 -232.519531 224.09375 -230.957031 192.570312 -230.023438 C 173.84375 -229.085938 152.621094 -228.460938 129.210938 -227.835938 L 128.277344 -225.964844 C 127.652344 -224.714844 127.339844 -222.84375 127.339844 -220.347656 C 127.339844 -216.289062 128.585938 -213.480469 129.835938 -211.917969 L 132.644531 -209.421875 Z M 67.726562 5.929688 C 68.039062 7.179688 71.785156 8.113281 73.03125 7.800781 C 75.53125 7.800781 84.269531 3.121094 85.515625 1.871094 L 86.453125 0 L 88.015625 -4.679688 C 88.324219 -8.113281 88.949219 -10.613281 88.949219 -12.796875 C 88.949219 -13.421875 100.808594 -79.898438 100.808594 -190.695312 L 99.875 -221.28125 C 98.9375 -229.710938 94.566406 -231.582031 86.140625 -230.644531 L 80.523438 -227.835938 C 78.960938 -221.28125 78.339844 -215.351562 78.027344 -209.421875 C 79.273438 -146.066406 76.464844 -95.503906 73.03125 -60.238281 C 71.160156 -39.636719 68.976562 -21.535156 66.476562 -5.617188 Z M 26.839844 -90.824219 C 29.027344 -87.703125 32.148438 -86.140625 36.515625 -86.140625 C 43.695312 -86.140625 49.9375 -89.886719 49.9375 -98.3125 L 49.9375 -186.015625 C 49.9375 -186.640625 49.3125 -187.261719 48.375 -187.574219 C 46.191406 -188.511719 44.941406 -189.761719 41.511719 -189.761719 C 36.515625 -189.761719 32.769531 -188.511719 31.523438 -183.519531 C 31.523438 -182.582031 31.523438 -181.644531 31.210938 -180.710938 L 30.585938 -176.027344 C 29.648438 -172.28125 29.339844 -168.226562 29.339844 -166.664062 C 28.089844 -145.441406 26.839844 -123.28125 26.839844 -100.808594 Z M 26.839844 -90.824219" transform="translate(1282.55 414.711)"/></g></g></g><g fill="#1E3976"><g><g><path d="M 148.875 -133.582031 C 157.925781 -132.644531 164.167969 -134.828125 169.472656 -135.140625 L 178.835938 -135.140625 L 179.148438 -122.65625 C 177.898438 -122.65625 151.371094 -122.035156 146.066406 -121.097656 C 141.382812 -119.535156 141.382812 -108.300781 149.1875 -107.363281 C 151.683594 -107.363281 164.792969 -108.300781 166.664062 -108.300781 L 179.148438 -108.300781 L 179.460938 -89.886719 C 180.398438 -80.835938 200.683594 -79.273438 199.746094 -91.445312 L 199.433594 -110.484375 C 203.179688 -110.484375 207.863281 -111.734375 215.039062 -111.734375 C 222.84375 -112.046875 225.964844 -114.855469 227.214844 -118.289062 C 228.148438 -120.160156 228.148438 -122.035156 227.835938 -124.21875 L 223.78125 -125.15625 C 221.59375 -125.464844 220.972656 -125.777344 220.035156 -125.777344 C 218.472656 -125.777344 213.792969 -125.464844 209.109375 -125.15625 L 199.125 -124.84375 L 198.8125 -137.328125 C 200.058594 -137.328125 200.996094 -137.328125 201.621094 -137.636719 L 207.238281 -137.636719 C 210.671875 -137.636719 213.792969 -137.949219 216.601562 -138.574219 C 221.28125 -139.511719 222.84375 -142.632812 221.90625 -147.9375 C 221.90625 -148.875 221.90625 -151.058594 219.722656 -151.058594 L 198.8125 -150.433594 L 198.8125 -160.421875 C 199.746094 -160.421875 201.308594 -160.734375 202.867188 -161.046875 C 204.742188 -161.984375 226.277344 -162.917969 229.398438 -162.917969 C 229.710938 -162.917969 230.335938 -161.671875 230.644531 -158.863281 C 230.957031 -157.613281 230.957031 -156.363281 230.957031 -154.804688 L 231.582031 -96.128906 C 232.519531 -79.585938 238.136719 -77.402344 242.195312 -77.402344 C 243.441406 -77.402344 244.691406 -77.714844 245.628906 -78.339844 C 247.1875 -79.585938 248.4375 -81.148438 249.058594 -82.707031 L 249.996094 -84.894531 C 255.300781 -99.875 251.246094 -163.855469 249.996094 -168.535156 L 248.75 -172.90625 C 248.75 -180.398438 204.429688 -176.339844 198.1875 -176.339844 L 198.1875 -186.640625 C 199.746094 -186.640625 202.867188 -186.953125 206.300781 -187.261719 L 217.226562 -188.199219 C 220.972656 -188.511719 224.714844 -189.136719 228.148438 -189.136719 L 241.257812 -190.695312 C 254.679688 -192.257812 253.117188 -200.371094 253.117188 -201.621094 C 253.117188 -205.367188 247.1875 -205.054688 243.753906 -205.054688 C 237.199219 -205.054688 230.644531 -204.742188 224.09375 -204.117188 C 217.851562 -203.492188 211.609375 -203.179688 205.367188 -203.179688 L 197.25 -202.867188 L 196.625 -215.664062 C 195.066406 -222.21875 191.632812 -222.84375 183.832031 -222.84375 C 176.652344 -222.84375 176.027344 -219.722656 176.027344 -215.664062 C 176.027344 -213.167969 175.714844 -205.988281 175.714844 -203.492188 L 175.714844 -201.308594 C 175.402344 -201.308594 174.46875 -200.996094 173.21875 -200.683594 C 171.347656 -200.058594 169.785156 -199.746094 168.847656 -199.746094 C 167.289062 -199.746094 164.167969 -199.125 160.109375 -198.8125 C 157.925781 -198.5 149.8125 -198.5 141.382812 -197.5625 L 125.464844 -196.316406 C 116.414062 -194.753906 117.976562 -186.953125 117.976562 -184.140625 C 117.976562 -182.582031 117.976562 -181.957031 120.472656 -181.019531 L 129.210938 -181.332031 C 133.269531 -181.332031 145.128906 -181.957031 156.054688 -182.894531 L 176.652344 -184.765625 L 176.652344 -173.53125 L 171.035156 -172.28125 L 153.242188 -169.785156 L 141.070312 -167.914062 C 137.636719 -167.601562 134.828125 -167.601562 132.019531 -166.664062 C 120.472656 -165.726562 120.472656 -160.734375 120.472656 -158.863281 L 121.410156 -90.511719 C 121.410156 -89.574219 123.28125 -87.078125 127.964844 -86.140625 L 131.707031 -86.140625 C 135.765625 -86.140625 138.261719 -87.703125 139.199219 -90.824219 C 139.199219 -91.136719 139.199219 -105.492188 138.886719 -120.160156 C 138.574219 -128.585938 138.574219 -137.949219 138.574219 -148.875 C 138.574219 -149.8125 139.199219 -150.433594 140.757812 -150.433594 C 141.695312 -151.371094 144.191406 -151.996094 145.441406 -151.996094 C 145.753906 -151.996094 147 -152.308594 148.5625 -152.933594 C 150.746094 -153.867188 151.683594 -153.554688 151.996094 -153.554688 L 164.480469 -155.742188 C 170.410156 -156.675781 175.402344 -156.988281 177.589844 -156.988281 L 177.589844 -149.8125 L 175.402344 -148.25 L 152.621094 -146.378906 C 142.945312 -144.816406 144.191406 -134.515625 148.875 -133.582031 Z M 109.550781 -54.617188 C 105.492188 -49.9375 105.804688 -46.816406 106.738281 -44.632812 C 107.363281 -43.382812 108.300781 -42.132812 109.550781 -41.199219 C 114.855469 -40.886719 117.351562 -40.574219 122.65625 -41.511719 C 127.652344 -42.445312 150.433594 -44.632812 155.117188 -44.632812 C 156.363281 -44.320312 151.683594 -42.132812 153.242188 -39.324219 C 155.117188 -36.515625 167.601562 -14.667969 174.46875 -13.734375 C 178.523438 -13.734375 184.453125 -19.039062 184.765625 -24.96875 L 185.078125 -27.464844 C 183.832031 -28.714844 180.398438 -32.148438 176.652344 -34.957031 C 174.46875 -36.203125 172.28125 -39.324219 170.097656 -41.820312 L 166.351562 -46.503906 L 170.722656 -47.128906 L 171.96875 -47.128906 C 172.28125 -47.128906 173.53125 -47.441406 175.714844 -47.753906 L 187.261719 -49.3125 C 196.003906 -50.25 193.816406 -50.25 199.125 -50.25 C 199.433594 -50.25 201.308594 -50.25 203.492188 -50.5625 C 204.429688 -50.875 205.988281 -50.875 207.550781 -51.183594 L 207.550781 -47.753906 C 207.550781 -46.816406 207.238281 -38.078125 206.925781 -29.027344 L 206.300781 -11.234375 C 206.300781 -10.300781 202.246094 -11.859375 198.5 -13.421875 L 191.007812 -16.542969 C 186.328125 -16.542969 185.390625 -12.796875 186.328125 -11.859375 C 186.953125 -10.300781 202.246094 2.808594 204.742188 5.304688 C 207.238281 8.425781 210.359375 9.988281 214.417969 10.300781 C 217.851562 10.300781 224.402344 6.242188 224.402344 1.25 L 226.589844 -52.433594 C 227.214844 -54.617188 238.136719 -53.996094 243.753906 -54.929688 C 249.058594 -55.867188 255.300781 -55.867188 257.488281 -56.804688 C 262.167969 -58.050781 261.855469 -57.738281 261.855469 -62.421875 C 262.167969 -63.667969 262.480469 -69.597656 260.296875 -69.910156 L 226.589844 -69.597656 L 225.339844 -78.960938 C 223.15625 -83.644531 221.59375 -85.515625 215.664062 -85.828125 C 214.105469 -85.515625 212.855469 -84.894531 212.230469 -84.582031 C 210.046875 -83.332031 208.796875 -82.394531 208.796875 -81.460938 L 208.175781 -67.726562 L 158.863281 -61.171875 L 124.84375 -56.804688 C 119.535156 -55.867188 114.230469 -55.242188 109.550781 -54.617188 Z M 78.652344 -136.703125 C 78.652344 -131.398438 78.339844 -119.847656 78.027344 -105.179688 L 77.402344 -82.394531 L 76.777344 -59.613281 C 76.464844 -44.941406 76.152344 -32.769531 76.152344 -26.839844 L 76.152344 -20.597656 C 76.152344 -12.171875 78.652344 -7.179688 87.390625 -7.179688 C 92.070312 -7.179688 98.3125 -12.171875 98.3125 -17.164062 L 98.3125 -138.886719 C 98.3125 -139.511719 98 -140.136719 97.378906 -140.757812 C 96.128906 -141.695312 93.945312 -142.945312 90.824219 -143.878906 C 83.644531 -143.878906 81.148438 -140.136719 78.652344 -136.703125 Z M 44.007812 -134.828125 C 44.007812 -132.332031 45.253906 -128.585938 47.753906 -128.585938 C 49.9375 -128.585938 52.433594 -129.835938 53.683594 -131.085938 L 58.363281 -134.828125 L 66.167969 -141.070312 C 72.097656 -146.066406 96.128906 -171.96875 104.867188 -182.269531 C 108.925781 -187.574219 112.980469 -192.257812 116.726562 -196.9375 C 120.160156 -201.621094 122.96875 -204.429688 124.53125 -206.613281 L 124.53125 -209.109375 C 124.53125 -211.917969 122.34375 -215.351562 119.535156 -217.539062 C 116.414062 -220.035156 113.292969 -221.28125 109.859375 -221.28125 L 107.363281 -221.28125 L 44.007812 -136.078125 Z M 211.296875 -219.410156 C 211.296875 -217.226562 213.167969 -215.976562 215.351562 -215.039062 L 241.882812 -206.613281 L 242.816406 -206.613281 C 246.25 -207.550781 249.058594 -212.855469 248.75 -216.289062 C 248.75 -217.539062 244.378906 -223.15625 232.207031 -224.09375 C 229.398438 -224.402344 227.214844 -224.402344 225.027344 -224.402344 L 220.035156 -224.402344 L 217.226562 -223.78125 C 215.039062 -223.46875 210.984375 -222.84375 211.296875 -219.410156 Z M 211.296875 -219.410156" transform="translate(1594.546 414.711)"/></g></g></g><g fill="#1E3976"><g><g><path d="M 61.796875 -15.1875 C 64.332031 -16.679688 65.523438 -18.464844 65.523438 -20.402344 C 65.523438 -21.445312 65.222656 -22.335938 64.628906 -23.230469 C 63.585938 -25.167969 62.097656 -26.207031 60.160156 -26.207031 C 59.117188 -26.207031 57.925781 -25.910156 56.734375 -25.316406 L 52.121094 -22.933594 C 48.992188 -21.890625 45.863281 -21.292969 42.738281 -21.292969 C 34.996094 -21.292969 27.550781 -24.570312 23.230469 -29.929688 C 19.507812 -34.695312 17.421875 -41.992188 17.421875 -49.738281 C 17.421875 -56.882812 19.210938 -63.734375 22.335938 -68.054688 C 28.738281 -76.839844 36.1875 -81.15625 44.671875 -81.15625 C 47.949219 -81.15625 51.226562 -80.5625 54.351562 -79.519531 C 55.992188 -79.074219 57.332031 -78.773438 58.226562 -78.773438 C 61.351562 -78.773438 63.289062 -80.710938 63.289062 -83.835938 C 63.140625 -86.371094 61.351562 -88.304688 57.628906 -89.941406 L 54.949219 -91.132812 C 52.269531 -91.878906 49.4375 -92.175781 46.609375 -92.175781 C 26.207031 -92.773438 5.808594 -71.476562 6.402344 -48.695312 C 6.105469 -29.78125 19.65625 -9.082031 42.738281 -10.425781 C 48.84375 -10.273438 55.097656 -11.914062 61.796875 -15.1875 Z M 61.796875 -15.1875" transform="translate(814.029 645.197)"/></g></g></g><g fill="#1E3976"><g><g><path d="M 50.035156 -12.210938 C 50.628906 -12.210938 51.078125 -12.210938 51.375 -12.359375 C 54.800781 -13.402344 55.394531 -15.488281 55.542969 -19.65625 L 55.992188 -29.1875 C 56.4375 -37.378906 56.734375 -44.824219 56.734375 -51.523438 C 56.734375 -53.160156 56.734375 -54.503906 56.882812 -55.394531 L 57.035156 -59.566406 C 57.035156 -63.585938 55.246094 -65.671875 51.820312 -65.671875 C 48.695312 -65.671875 46.164062 -63.734375 46.015625 -60.308594 L 46.015625 -53.460938 C 45.863281 -48.398438 45.714844 -44.375 45.269531 -41.546875 C 44.972656 -38.71875 44.078125 -35.589844 42.738281 -32.015625 C 40.800781 -27.101562 38.417969 -24.570312 33.652344 -22.933594 C 32.015625 -22.484375 30.527344 -22.1875 29.335938 -22.1875 C 25.316406 -22.1875 22.632812 -23.976562 21.292969 -27.699219 C 19.953125 -31.570312 19.359375 -35.441406 19.359375 -39.3125 C 19.359375 -46.164062 19.65625 -52.863281 20.402344 -59.417969 C 20.847656 -63.140625 19.507812 -65.371094 16.378906 -66.117188 C 15.636719 -66.265625 15.039062 -66.414062 14.59375 -66.414062 C 12.0625 -66.414062 9.828125 -64.332031 9.679688 -60.757812 C 8.636719 -50.035156 8.191406 -42.140625 8.191406 -37.226562 C 8.191406 -32.613281 8.933594 -27.996094 10.574219 -23.378906 C 13.402344 -15.636719 19.507812 -11.019531 26.65625 -11.019531 C 29.78125 -11.019531 32.613281 -11.765625 35.441406 -13.105469 C 37.824219 -13.847656 40.503906 -15.636719 43.632812 -18.019531 L 44.824219 -15.933594 C 46.3125 -13.402344 48.097656 -12.210938 50.035156 -12.210938 Z M 50.035156 -12.210938" transform="translate(900.398 645.197)"/></g></g></g><g fill="#1E3976"><g><g><path d="M 13.550781 -66.414062 C 10.125 -65.820312 9.082031 -63.4375 8.933594 -59.714844 C 8.488281 -49.738281 8.191406 -37.824219 8.191406 -23.976562 C 8.191406 -20.253906 8.785156 -17.273438 9.828125 -15.339844 C 10.871094 -13.699219 13.550781 -12.0625 15.1875 -12.507812 C 16.976562 -12.65625 18.761719 -14.445312 19.804688 -16.378906 C 19.953125 -16.679688 20.101562 -17.125 20.101562 -17.871094 L 19.953125 -28.589844 C 19.804688 -33.804688 19.65625 -37.675781 19.65625 -40.503906 C 19.65625 -44.375 20.101562 -46.757812 20.847656 -47.652344 C 25.167969 -52.417969 29.1875 -55.246094 34.996094 -57.035156 C 35.441406 -57.183594 36.035156 -57.183594 36.929688 -57.183594 C 42.140625 -57.183594 45.269531 -53.3125 45.863281 -47.207031 C 46.015625 -43.632812 46.3125 -38.121094 46.460938 -30.527344 L 46.757812 -22.1875 C 46.90625 -20.550781 47.355469 -16.976562 48.097656 -15.1875 C 49.140625 -13.253906 50.480469 -12.359375 52.269531 -12.359375 C 54.054688 -12.359375 55.542969 -13.253906 56.585938 -14.890625 C 57.183594 -15.488281 57.925781 -17.125 57.925781 -18.761719 L 57.925781 -25.167969 C 57.925781 -35.886719 57.628906 -44.523438 56.882812 -51.078125 C 55.691406 -60.757812 49.4375 -66.117188 40.355469 -66.117188 C 38.269531 -66.117188 36.335938 -65.96875 34.695312 -65.523438 C 31.273438 -64.925781 27.101562 -62.988281 26.359375 -62.542969 C 25.015625 -61.796875 23.082031 -61.054688 20.550781 -60.160156 L 20.253906 -61.949219 C 19.359375 -65.074219 17.570312 -66.5625 14.742188 -66.5625 Z M 13.550781 -66.414062" transform="translate(984.98 645.197)"/></g></g></g><g fill="#1E3976"><g><g><path d="M 30.378906 -63.140625 L 30.527344 -30.824219 L 30.527344 -22.039062 C 30.527344 -21.292969 30.675781 -17.871094 31.273438 -15.488281 C 31.71875 -13.105469 33.058594 -11.613281 35.292969 -11.613281 C 36.035156 -11.613281 36.484375 -11.613281 36.78125 -11.765625 C 38.417969 -12.210938 39.910156 -13.550781 41.25 -15.933594 C 41.695312 -16.679688 41.84375 -17.570312 41.84375 -18.761719 L 41.695312 -20.996094 C 41.84375 -32.910156 41.992188 -49.140625 41.992188 -69.542969 C 41.992188 -72.222656 42.140625 -74.902344 42.441406 -77.582031 C 46.757812 -77.730469 49.289062 -77.582031 50.929688 -77.582031 C 51.820312 -77.730469 54.203125 -77.730469 57.925781 -77.730469 L 64.925781 -77.882812 C 68.648438 -78.03125 71.179688 -80.414062 71.179688 -83.390625 C 71.179688 -86.816406 68.648438 -89.050781 64.332031 -89.199219 L 59.863281 -89.050781 L 54.800781 -88.902344 L 45.714844 -89.050781 C 33.355469 -89.496094 27.398438 -89.792969 27.699219 -89.792969 C 23.675781 -89.941406 18.613281 -90.242188 12.507812 -90.390625 C 9.382812 -90.539062 7 -90.242188 5.0625 -89.496094 C 3.277344 -88.453125 1.785156 -86.519531 1.191406 -84.730469 C 0.59375 -81.902344 2.382812 -80.113281 5.359375 -79.519531 C 7.296875 -79.371094 8.933594 -79.222656 10.125 -79.222656 L 13.699219 -79.371094 C 15.636719 -79.519531 18.464844 -79.371094 22.1875 -79.074219 L 30.082031 -78.625 L 30.378906 -70.734375 Z M 30.378906 -63.140625" transform="translate(1070.457 645.197)"/></g></g></g><g fill="#1E3976"><g><g><path d="M 43.484375 -16.679688 C 51.078125 -22.632812 55.542969 -32.613281 55.542969 -42.589844 C 55.542969 -46.609375 54.800781 -50.332031 53.3125 -53.757812 C 49.589844 -62.542969 42.292969 -66.863281 31.570312 -66.863281 C 22.484375 -66.863281 15.933594 -63.882812 12.0625 -57.925781 C 7.148438 -50.332031 5.210938 -43.183594 5.660156 -33.652344 C 5.808594 -25.910156 10.125 -19.359375 17.125 -15.039062 C 20.550781 -12.804688 24.570312 -11.765625 29.1875 -11.765625 C 34.546875 -11.765625 39.3125 -13.402344 43.484375 -16.679688 Z M 18.910156 -50.035156 C 21.445312 -54.054688 26.359375 -56.4375 31.121094 -56.4375 C 33.804688 -56.4375 36.1875 -55.84375 38.121094 -54.503906 C 40.652344 -52.714844 43.484375 -49.140625 44.226562 -46.609375 C 44.671875 -45.417969 44.824219 -43.929688 44.824219 -42.292969 C 44.824219 -37.824219 43.332031 -33.207031 40.503906 -28.292969 C 38.121094 -24.273438 33.652344 -22.1875 29.335938 -22.1875 C 26.359375 -22.1875 23.675781 -23.082031 21.144531 -25.015625 C 18.019531 -27.550781 15.636719 -32.015625 15.636719 -37.824219 C 15.636719 -43.035156 16.679688 -45.863281 18.910156 -50.035156 Z M 18.910156 -50.035156" transform="translate(1164.42 645.197)"/></g></g></g><g fill="#1E3976"><g><g><path d="M 50.035156 -12.210938 C 50.628906 -12.210938 51.078125 -12.210938 51.375 -12.359375 C 54.800781 -13.402344 55.394531 -15.488281 55.542969 -19.65625 L 55.992188 -29.1875 C 56.4375 -37.378906 56.734375 -44.824219 56.734375 -51.523438 C 56.734375 -53.160156 56.734375 -54.503906 56.882812 -55.394531 L 57.035156 -59.566406 C 57.035156 -63.585938 55.246094 -65.671875 51.820312 -65.671875 C 48.695312 -65.671875 46.164062 -63.734375 46.015625 -60.308594 L 46.015625 -53.460938 C 45.863281 -48.398438 45.714844 -44.375 45.269531 -41.546875 C 44.972656 -38.71875 44.078125 -35.589844 42.738281 -32.015625 C 40.800781 -27.101562 38.417969 -24.570312 33.652344 -22.933594 C 32.015625 -22.484375 30.527344 -22.1875 29.335938 -22.1875 C 25.316406 -22.1875 22.632812 -23.976562 21.292969 -27.699219 C 19.953125 -31.570312 19.359375 -35.441406 19.359375 -39.3125 C 19.359375 -46.164062 19.65625 -52.863281 20.402344 -59.417969 C 20.847656 -63.140625 19.507812 -65.371094 16.378906 -66.117188 C 15.636719 -66.265625 15.039062 -66.414062 14.59375 -66.414062 C 12.0625 -66.414062 9.828125 -64.332031 9.679688 -60.757812 C 8.636719 -50.035156 8.191406 -42.140625 8.191406 -37.226562 C 8.191406 -32.613281 8.933594 -27.996094 10.574219 -23.378906 C 13.402344 -15.636719 19.507812 -11.019531 26.65625 -11.019531 C 29.78125 -11.019531 32.613281 -11.765625 35.441406 -13.105469 C 37.824219 -13.847656 40.503906 -15.636719 43.632812 -18.019531 L 44.824219 -15.933594 C 46.3125 -13.402344 48.097656 -12.210938 50.035156 -12.210938 Z M 50.035156 -12.210938" transform="translate(1244.982 645.197)"/></g></g></g><g fill="#1E3976"><g><g><path d="M 5.957031 -60.90625 C 5.957031 -59.265625 6.105469 -57.628906 6.402344 -55.992188 C 7.445312 -49.589844 11.316406 -44.671875 17.871094 -42.738281 C 22.1875 -41.546875 26.65625 -40.652344 31.570312 -40.058594 C 39.164062 -38.71875 44.226562 -36.632812 48.246094 -32.3125 C 49.886719 -30.675781 50.628906 -28.890625 50.628906 -26.953125 C 50.628906 -23.976562 48.097656 -21.742188 44.078125 -21.292969 C 41.992188 -20.996094 39.910156 -20.847656 37.824219 -20.847656 C 31.71875 -20.847656 26.804688 -22.632812 23.082031 -26.207031 C 21.742188 -27.847656 20.253906 -28.589844 18.613281 -28.589844 C 17.570312 -28.589844 16.378906 -28.144531 15.339844 -27.25 C 13.847656 -26.207031 13.105469 -24.867188 13.105469 -23.230469 C 13.105469 -21.59375 13.847656 -20.253906 15.339844 -19.0625 C 17.71875 -16.53125 20.996094 -14.445312 25.015625 -12.65625 C 29.632812 -11.019531 33.953125 -10.273438 38.121094 -10.273438 C 40.355469 -10.273438 42.886719 -10.574219 45.714844 -11.019531 C 53.609375 -12.0625 58.523438 -15.339844 60.757812 -20.996094 C 61.648438 -23.230469 62.097656 -25.316406 62.097656 -27.25 C 62.097656 -31.273438 60.457031 -35.144531 57.035156 -39.164062 C 52.269531 -44.972656 45.863281 -47.949219 37.078125 -49.886719 C 36.78125 -50.035156 34.84375 -50.332031 31.121094 -50.777344 C 29.1875 -50.929688 27.25 -51.226562 25.316406 -51.671875 C 19.507812 -53.011719 17.273438 -55.542969 17.273438 -60.308594 C 17.273438 -61.351562 17.273438 -62.097656 17.421875 -62.691406 C 18.761719 -71.777344 25.613281 -79.816406 33.804688 -81.15625 C 36.335938 -81.605469 38.269531 -81.902344 39.910156 -81.902344 C 47.503906 -81.902344 53.460938 -78.03125 57.925781 -70.136719 C 58.074219 -69.542969 58.820312 -67.605469 59.863281 -67.160156 C 62.097656 -66.117188 63.585938 -65.820312 64.480469 -66.414062 C 65.671875 -66.5625 66.863281 -68.351562 67.308594 -69.988281 C 67.457031 -70.136719 67.457031 -70.285156 67.457031 -70.734375 C 67.457031 -71.476562 67.160156 -72.667969 66.414062 -74.007812 C 62.097656 -86.519531 53.160156 -92.324219 38.867188 -92.324219 C 20.996094 -92.324219 5.957031 -77.730469 5.957031 -60.90625 Z M 5.957031 -60.90625" transform="translate(1329.565 645.197)"/></g></g></g><g fill="#1E3976"><g><g><path d="M 22.785156 -87.710938 C 22.933594 -88.304688 22.933594 -89.050781 22.933594 -90.09375 C 22.933594 -95.007812 21.144531 -97.089844 17.421875 -97.089844 C 13.996094 -97.089844 12.210938 -94.261719 11.914062 -88.601562 L 11.316406 -81.304688 C 10.871094 -76.542969 10.425781 -70.285156 9.976562 -62.394531 C 9.828125 -57.925781 9.382812 -51.226562 8.785156 -42.292969 C 8.191406 -35.441406 7.742188 -28.589844 7.445312 -21.742188 L 7.445312 -19.210938 C 7.445312 -17.71875 7.59375 -16.679688 8.042969 -15.933594 C 9.234375 -14.148438 10.871094 -12.507812 12.507812 -12.507812 C 14.148438 -12.359375 16.082031 -13.699219 17.125 -15.039062 C 17.871094 -15.933594 18.316406 -17.71875 18.316406 -20.550781 C 18.761719 -25.464844 19.0625 -30.082031 19.0625 -34.25 C 19.0625 -43.035156 23.378906 -48.398438 31.570312 -54.503906 C 33.804688 -56.140625 36.035156 -57.035156 38.570312 -57.035156 C 43.183594 -57.035156 46.90625 -53.757812 47.652344 -47.949219 C 48.097656 -42.441406 48.246094 -33.804688 48.246094 -22.1875 C 48.246094 -20.550781 47.800781 -19.0625 47.800781 -17.71875 C 47.800781 -14.296875 49.738281 -11.765625 52.714844 -11.765625 C 54.351562 -11.765625 56.289062 -13.699219 57.925781 -15.039062 C 58.523438 -15.488281 58.96875 -16.828125 58.96875 -17.871094 L 59.117188 -34.546875 C 59.117188 -41.84375 58.671875 -47.503906 57.925781 -51.671875 C 56.140625 -61.351562 50.332031 -66.5625 42.140625 -66.5625 C 38.71875 -66.5625 35.441406 -65.820312 32.3125 -64.480469 L 28.738281 -62.542969 C 27.101562 -61.5 25.910156 -60.90625 25.015625 -60.457031 C 23.230469 -59.417969 21.742188 -58.523438 20.699219 -57.480469 L 20.699219 -63.734375 C 21.445312 -72.816406 22.039062 -80.710938 22.785156 -87.710938 Z M 22.785156 -87.710938" transform="translate(1420.848 645.197)"/></g></g></g><g fill="#1E3976"><g><g><path d="M 16.230469 -89.941406 C 12.507812 -90.09375 8.933594 -87.410156 8.933594 -83.390625 C 8.933594 -80.265625 11.613281 -77.285156 14.742188 -77.136719 C 18.761719 -77.285156 22.039062 -80.265625 22.039062 -83.6875 C 22.039062 -86.519531 19.210938 -89.792969 16.230469 -89.941406 Z M 13.699219 -12.507812 C 16.679688 -12.507812 18.464844 -14.148438 19.0625 -17.273438 C 19.0625 -18.019531 19.65625 -20.253906 19.507812 -21.59375 C 19.953125 -26.804688 19.953125 -30.230469 19.953125 -32.613281 C 19.953125 -34.84375 20.101562 -38.417969 20.253906 -43.632812 C 20.402344 -44.972656 20.402344 -47.207031 20.402344 -50.183594 C 20.402344 -54.203125 20.402344 -57.183594 20.253906 -59.117188 C 20.101562 -63.289062 18.019531 -65.523438 14.890625 -65.96875 C 11.316406 -65.820312 8.933594 -63.289062 8.933594 -58.671875 L 8.636719 -41.25 C 8.339844 -33.953125 8.191406 -27.550781 8.191406 -21.742188 C 8.191406 -19.359375 8.191406 -17.871094 8.339844 -17.421875 C 8.785156 -14.148438 10.574219 -12.507812 13.699219 -12.507812 Z M 13.699219 -12.507812" transform="translate(1507.516 645.197)"/></g></g></g><g fill="#1E3976"><g><g><path d="M 41.84375 -78.773438 C 50.628906 -78.921875 58.074219 -79.074219 64.480469 -79.074219 C 70.136719 -79.074219 72.96875 -80.710938 72.96875 -84.136719 C 72.96875 -87.710938 70.285156 -89.792969 64.777344 -90.242188 L 61.796875 -90.242188 C 59.863281 -90.242188 56.882812 -90.09375 53.160156 -89.941406 C 47.949219 -89.792969 44.078125 -89.644531 41.398438 -89.792969 C 33.058594 -90.09375 25.613281 -90.539062 18.910156 -91.132812 C 15.1875 -91.582031 12.957031 -90.242188 11.914062 -86.667969 C 11.167969 -83.09375 10.722656 -80.113281 10.722656 -77.882812 C 10.722656 -70.882812 10.425781 -61.203125 9.828125 -48.695312 C 9.234375 -36.335938 8.933594 -26.804688 8.933594 -19.953125 C 8.933594 -17.421875 9.082031 -15.636719 9.234375 -14.59375 C 9.382812 -11.765625 11.167969 -10.125 14.296875 -10.273438 C 16.828125 -10.425781 18.464844 -12.0625 18.910156 -15.339844 C 19.0625 -16.53125 19.210938 -18.464844 19.210938 -21.144531 C 19.210938 -25.761719 19.359375 -30.378906 19.65625 -35.144531 L 19.953125 -42.589844 L 34.84375 -42.589844 C 41.25 -43.035156 49.4375 -43.183594 59.417969 -43.183594 C 61.796875 -43.183594 63.289062 -43.484375 63.882812 -43.929688 C 66.117188 -46.015625 67.308594 -47.652344 67.308594 -48.84375 C 67.308594 -50.480469 65.523438 -52.269531 63.585938 -53.609375 C 63.140625 -53.90625 62.394531 -54.054688 61.648438 -54.054688 L 24.71875 -54.203125 L 21.890625 -54.203125 L 21.890625 -77.882812 C 23.082031 -78.03125 24.421875 -78.625 25.464844 -78.625 Z M 41.84375 -78.773438" transform="translate(1555.168 645.197)"/></g></g></g><g fill="#1E3976"><g><g><path d="M 50.035156 -12.210938 C 50.628906 -12.210938 51.078125 -12.210938 51.375 -12.359375 C 54.800781 -13.402344 55.394531 -15.488281 55.542969 -19.65625 L 55.992188 -29.1875 C 56.4375 -37.378906 56.734375 -44.824219 56.734375 -51.523438 C 56.734375 -53.160156 56.734375 -54.503906 56.882812 -55.394531 L 57.035156 -59.566406 C 57.035156 -63.585938 55.246094 -65.671875 51.820312 -65.671875 C 48.695312 -65.671875 46.164062 -63.734375 46.015625 -60.308594 L 46.015625 -53.460938 C 45.863281 -48.398438 45.714844 -44.375 45.269531 -41.546875 C 44.972656 -38.71875 44.078125 -35.589844 42.738281 -32.015625 C 40.800781 -27.101562 38.417969 -24.570312 33.652344 -22.933594 C 32.015625 -22.484375 30.527344 -22.1875 29.335938 -22.1875 C 25.316406 -22.1875 22.632812 -23.976562 21.292969 -27.699219 C 19.953125 -31.570312 19.359375 -35.441406 19.359375 -39.3125 C 19.359375 -46.164062 19.65625 -52.863281 20.402344 -59.417969 C 20.847656 -63.140625 19.507812 -65.371094 16.378906 -66.117188 C 15.636719 -66.265625 15.039062 -66.414062 14.59375 -66.414062 C 12.0625 -66.414062 9.828125 -64.332031 9.679688 -60.757812 C 8.636719 -50.035156 8.191406 -42.140625 8.191406 -37.226562 C 8.191406 -32.613281 8.933594 -27.996094 10.574219 -23.378906 C 13.402344 -15.636719 19.507812 -11.019531 26.65625 -11.019531 C 29.78125 -11.019531 32.613281 -11.765625 35.441406 -13.105469 C 37.824219 -13.847656 40.503906 -15.636719 43.632812 -18.019531 L 44.824219 -15.933594 C 46.3125 -13.402344 48.097656 -12.210938 50.035156 -12.210938 Z M 50.035156 -12.210938" transform="translate(1648.238 645.197)"/></g></g></g><g clip-path="url(#b)"><path fill="#1E3976" d="M 61.078125 577.125 L 99.511719 577.125 C 99.511719 575.941406 99.511719 573.566406 99.867188 568.585938 C 100.816406 555.300781 81.835938 547.707031 81.835938 547.707031 C 67.601562 522.085938 88.480469 489.9375 133.910156 467.160156 C 161.3125 453.519531 166.414062 430.742188 180.175781 416.390625 C 193.222656 430.742188 181.597656 486.734375 192.394531 507.613281 C 203.1875 528.492188 266.890625 572.144531 266.890625 572.144531 C 266.890625 572.144531 313.628906 579.144531 309.238281 562.652344 C 304.847656 546.285156 283.972656 549.960938 283.972656 549.960938 C 283.972656 549.960938 237.234375 529.082031 241.03125 501.917969 C 244.824219 474.753906 264.398438 407.375 264.398438 407.375 C 298.917969 410.933594 350.519531 416.273438 388.953125 420.1875 C 389.074219 422.203125 392.867188 502.867188 372.347656 520.1875 C 351.46875 537.742188 350.046875 562.296875 358.113281 570.839844 C 366.179688 579.378906 386.582031 575.109375 380.886719 562.296875 C 375.195312 549.488281 386.582031 543.316406 402.714844 528.132812 C 418.847656 512.949219 443.875 432.40625 443.875 432.40625 L 521.695312 582.226562 L 578.988281 582.226562 C 578.988281 582.226562 584.210938 563.722656 560.484375 563.722656 C 536.757812 563.722656 525.371094 539.046875 525.371094 539.046875 C 525.371094 539.046875 513.035156 456.605469 509.238281 432.878906 C 505.441406 409.15625 576.5 256.011719 576.5 256.011719 C 594.765625 232.046875 616.238281 240.828125 620.035156 240.234375 C 623.828125 239.640625 633.914062 212.476562 633.914062 212.476562 C 633.914062 212.476562 634.03125 212.355469 634.03125 212.238281 C 634.148438 212 634.269531 211.761719 634.507812 211.40625 C 635.453125 209.511719 635.929688 207.613281 636.046875 205.832031 C 636.046875 204.289062 635.8125 202.75 635.21875 201.441406 C 635.21875 201.324219 635.097656 201.207031 635.097656 201.207031 C 635.097656 201.207031 635.097656 201.085938 635.097656 201.085938 C 633.4375 197.292969 629.761719 194.324219 624.542969 193.019531 C 614.457031 190.53125 617.542969 177.835938 605.5625 169.058594 C 596.902344 162.652344 580.058594 157.910156 568.550781 155.535156 C 564.042969 154.585938 560.367188 153.992188 558.230469 153.875 C 556.808594 153.757812 555.621094 152.570312 554.433594 150.789062 C 549.097656 142.367188 545.539062 120.542969 539.84375 126.710938 C 532.84375 134.300781 522.167969 165.855469 522.167969 165.855469 C 522.167969 165.855469 497.851562 195.273438 475.074219 219.832031 C 452.300781 244.503906 411.609375 254.941406 362.261719 249.25 C 313.035156 243.554688 150.875 244.503906 141.386719 244.503906 C 140.671875 244.503906 139.84375 244.503906 139.011719 244.386719 C 115.644531 256.839844 95.476562 278.3125 93.933594 279.972656 C 88.242188 287.566406 76.378906 310.339844 77.800781 364.90625 C 79.699219 435.964844 53.128906 440.707031 44.585938 473.921875 C 36.402344 506.902344 61.078125 577.125 61.078125 577.125 Z M 61.078125 577.125"/></g><path fill="#F99C9C" d="M 554.554688 150.554688 C 555.738281 152.332031 556.925781 153.519531 558.347656 153.636719 C 560.484375 153.757812 564.160156 154.347656 568.667969 155.296875 C 568.667969 152.09375 569.5 146.757812 570.332031 143.199219 C 571.515625 138.335938 571.753906 129.082031 566.890625 133.828125 C 563.214844 137.625 557.164062 146.519531 554.554688 150.554688 Z M 554.554688 150.554688"/><path fill="#F99C9C" d="M 139.722656 244.265625 C 130.472656 242.960938 117.898438 232.402344 101.289062 179.972656 C 83.257812 123.152344 107.933594 54.824219 129.761719 46.28125 C 151.585938 37.742188 137.351562 27.304688 137.351562 27.304688 C 137.351562 27.304688 90.96875 9.273438 62.5 94.679688 C 34.03125 179.972656 97.613281 276.652344 97.613281 276.652344 C 97.613281 276.652344 116.355469 256.722656 139.722656 244.265625 Z M 139.722656 244.265625"/><g clip-path="url(#c)"><path fill="#F99C9C" d="M 625.609375 203.460938 C 625.609375 203.460938 633.320312 208.203125 634.269531 212.238281 C 634.386719 212 634.625 211.761719 634.742188 211.527344 C 635.691406 209.628906 636.167969 207.730469 636.285156 205.832031 C 636.285156 204.171875 635.929688 202.628906 635.335938 201.085938 C 635.335938 201.085938 635.335938 200.96875 635.335938 200.96875 Z M 625.609375 203.460938"/></g><g mask="url(#d)"><g><g clip-path="url(#e)" transform="translate(179 402)"><g clip-path="url(#f)"><path fill="#F99C9C" d="M 1.292969 14.390625 C 14.34375 28.742188 2.71875 84.734375 13.511719 105.613281 C 24.308594 126.492188 88.007812 170.144531 88.007812 170.144531 C 88.007812 170.144531 134.746094 177.144531 130.355469 160.652344 C 125.96875 144.285156 105.089844 147.960938 105.089844 147.960938 C 105.089844 147.960938 58.351562 127.082031 62.148438 99.917969 C 65.945312 72.753906 85.515625 5.375 85.515625 5.375 C 65.589844 3.359375 51.351562 1.933594 48.863281 1.578125 C 23.238281 -1.03125 10.308594 4.902344 1.292969 14.390625 Z M 1.292969 14.390625"/></g></g></g></g><g mask="url(#g)"><g><g clip-path="url(#h)" transform="translate(352 418)"><g clip-path="url(#i)"><path fill="#F99C9C" d="M 6.230469 152.957031 C 14.296875 161.5 34.699219 157.226562 29.007812 144.417969 C 23.3125 131.605469 34.699219 125.4375 50.832031 110.253906 C 66.964844 95.070312 91.996094 14.523438 91.996094 14.523438 L 88.316406 7.40625 C 88.316406 7.40625 66.730469 5.152344 37.191406 2.1875 C 37.308594 4.203125 41.105469 84.867188 20.582031 102.1875 C -0.414062 119.742188 -1.835938 144.417969 6.230469 152.957031 Z M 6.230469 152.957031"/></g></g></g></g></svg>